{
	"patcher" : 	{
		"fileversion" : 1,
		"appversion" : 		{
			"major" : 6,
			"minor" : 1,
			"revision" : 10,
			"architecture" : "x86"
		}
,
		"rect" : [ 54.0, 438.0, 890.0, 563.0 ],
		"bglocked" : 0,
		"openinpresentation" : 0,
		"default_fontsize" : 12.0,
		"default_fontface" : 0,
		"default_fontname" : "Arial",
		"gridonopen" : 0,
		"gridsize" : [ 15.0, 15.0 ],
		"gridsnaponopen" : 0,
		"statusbarvisible" : 2,
		"toolbarvisible" : 1,
		"boxanimatetime" : 200,
		"imprint" : 0,
		"enablehscroll" : 1,
		"enablevscroll" : 1,
		"devicewidth" : 0.0,
		"description" : "",
		"digest" : "",
		"tags" : "",
		"boxes" : [ 			{
				"box" : 				{
					"fontname" : "Arial",
					"fontsize" : 12.0,
					"id" : "obj-1212",
					"linecount" : 5,
					"maxclass" : "message",
					"numinlets" : 2,
					"numoutlets" : 1,
					"outlettype" : [ "" ],
					"patching_rect" : [ 465.171295, 416.0, 50.0, 72.0 ],
					"text" : "text three hundred and two"
				}

			}
, 			{
				"box" : 				{
					"fontname" : "Arial",
					"fontsize" : 12.0,
					"id" : "obj-1003",
					"maxclass" : "newobj",
					"numinlets" : 1,
					"numoutlets" : 1,
					"outlettype" : [ "" ],
					"patching_rect" : [ 657.0, 146.975967, 100.0, 20.0 ],
					"text" : "prepend"
				}

			}
, 			{
				"box" : 				{
					"fontname" : "Arial",
					"fontsize" : 12.0,
					"id" : "obj-173",
					"maxclass" : "message",
					"numinlets" : 2,
					"numoutlets" : 1,
					"outlettype" : [ "" ],
					"patching_rect" : [ 235.828506, 78.0, 50.0, 18.0 ],
					"text" : "preset"
				}

			}
, 			{
				"box" : 				{
					"id" : "obj-170",
					"maxclass" : "bpatcher",
					"name" : "tlfo.maxpat",
					"numinlets" : 5,
					"numoutlets" : 1,
					"outlettype" : [ "float" ],
					"patching_rect" : [ 615.0, 274.800995, 302.0, 129.0 ]
				}

			}
, 			{
				"box" : 				{
					"id" : "obj-166",
					"maxclass" : "preset",
					"numinlets" : 1,
					"numoutlets" : 4,
					"outlettype" : [ "preset", "int", "preset", "int" ],
					"patching_rect" : [ 208.828506, 26.0, 100.0, 40.0 ],
					"preset_data" : [ 						{
							"number" : 1,
							"data" : [ 4, "<invalid>", "textedit", "set", 4, "<invalid>", "textedit", "set", 4, "<invalid>", "textedit", "set", 4, "<invalid>", "textedit", "set", 4, "<invalid>", "textedit", "set", 4, "<invalid>", "textedit", "set", 4, "<invalid>", "textedit", "set", 4, "<invalid>", "textedit", "set", 4, "<invalid>", "textedit", "set", 4, "obj-1323", "textedit", "set", 4, "<invalid>", "textedit", "set", 4, "<invalid>", "textedit", "set", 4, "<invalid>", "textedit", "set", 4, "<invalid>", "textedit", "set", 5, "<invalid>", "textedit", "set", "world", 5, "<invalid>", "textedit", "set", "hello", 5, "obj-5", "number", "int", 0 ]
						}
, 						{
							"number" : 2,
							"data" : [ 4, "<invalid>", "textedit", "set", 4, "<invalid>", "textedit", "set", 4, "<invalid>", "textedit", "set", 4, "<invalid>", "textedit", "set", 4, "<invalid>", "textedit", "set", 4, "<invalid>", "textedit", "set", 4, "<invalid>", "textedit", "set", 4, "<invalid>", "textedit", "set", 4, "<invalid>", "textedit", "set", 4, "obj-1323", "textedit", "set", 4, "<invalid>", "textedit", "set", 4, "<invalid>", "textedit", "set", 4, "<invalid>", "textedit", "set", 4, "<invalid>", "textedit", "set", 5, "<invalid>", "textedit", "set", "world", 5, "<invalid>", "textedit", "set", "goodbye", 5, "obj-5", "number", "int", 0 ]
						}
, 						{
							"number" : 11,
							"data" : [ 4, "<invalid>", "textedit", "set", 4, "<invalid>", "textedit", "set", 4, "<invalid>", "textedit", "set", 4, "<invalid>", "textedit", "set", 4, "<invalid>", "textedit", "set", 4, "obj-1323", "textedit", "set", 4, "<invalid>", "textedit", "set", 4, "<invalid>", "textedit", "set", 4, "<invalid>", "textedit", "set", 4, "<invalid>", "textedit", "set", 4, "<invalid>", "textedit", "set", 4, "<invalid>", "textedit", "set", 4, "<invalid>", "textedit", "set", 4, "<invalid>", "textedit", "set", 4, "<invalid>", "textedit", "set", 4, "<invalid>", "textedit", "set", 5, "obj-5", "number", "int", 0 ]
						}
 ]
				}

			}
, 			{
				"box" : 				{
					"fontname" : "Arial",
					"fontsize" : 12.0,
					"id" : "obj-732",
					"maxclass" : "message",
					"numinlets" : 2,
					"numoutlets" : 1,
					"outlettype" : [ "" ],
					"patching_rect" : [ 635.0, 448.0, 50.0, 18.0 ],
					"text" : "\"0\" \"15\""
				}

			}
, 			{
				"box" : 				{
					"fontname" : "Arial",
					"fontsize" : 12.0,
					"id" : "obj-5",
					"maxclass" : "number",
					"numinlets" : 1,
					"numoutlets" : 2,
					"outlettype" : [ "int", "bang" ],
					"parameter_enable" : 0,
					"patching_rect" : [ 26.0, 67.0, 50.0, 20.0 ]
				}

			}
, 			{
				"box" : 				{
					"fontname" : "Arial",
					"fontsize" : 12.0,
					"id" : "obj-3",
					"maxclass" : "message",
					"numinlets" : 2,
					"numoutlets" : 1,
					"outlettype" : [ "" ],
					"patching_rect" : [ 36.0, 34.0, 50.0, 18.0 ],
					"text" : "compile"
				}

			}
, 			{
				"box" : 				{
					"id" : "obj-16",
					"maxclass" : "bpatcher",
					"name" : "crossmatrix-control.maxpat",
					"numinlets" : 0,
					"numoutlets" : 1,
					"outlettype" : [ "" ],
					"patching_rect" : [ 98.561615, 34.0, 111.0, 24.0 ]
				}

			}
, 			{
				"box" : 				{
					"border" : 0,
					"filename" : "crossmatrix.jso",
					"id" : "obj-1",
					"jsarguments" : [ 16, 16 ],
					"maxclass" : "jsui",
					"numinlets" : 1,
					"numoutlets" : 2,
					"outlettype" : [ "", "" ],
					"parameter_enable" : 0,
					"patching_rect" : [ 143.795105, 144.0, 230.066803, 230.717621 ]
				}

			}
, 			{
				"box" : 				{
					"blinkcolor" : [ 1.0, 0.5, 0.0, 1.0 ],
					"id" : "obj-1296",
					"ignoreclick" : 1,
					"maxclass" : "button",
					"numinlets" : 1,
					"numoutlets" : 1,
					"outlettype" : [ "bang" ],
					"outlinecolor" : [ 0.5, 0.0, 0.0, 1.0 ],
					"patching_rect" : [ 376.0, 146.975967, 14.171288, 14.171288 ],
					"varname" : "output-button-0"
				}

			}
, 			{
				"box" : 				{
					"border" : 1.0,
					"fontname" : "Arial",
					"fontsize" : 9.0,
					"frgb" : 0.0,
					"id" : "obj-1298",
					"keymode" : 1,
					"lines" : 1,
					"maxclass" : "textedit",
					"numinlets" : 1,
					"numoutlets" : 4,
					"outlettype" : [ "", "int", "", "" ],
					"parameter_enable" : 0,
					"patching_rect" : [ 395.171295, 146.975967, 100.0, 14.171288 ],
					"text" : "goodbye",
					"varname" : "output-label-0"
				}

			}
, 			{
				"box" : 				{
					"blinkcolor" : [ 1.0, 0.5, 0.0, 1.0 ],
					"id" : "obj-1301",
					"ignoreclick" : 1,
					"maxclass" : "button",
					"numinlets" : 1,
					"numoutlets" : 1,
					"outlettype" : [ "bang" ],
					"outlinecolor" : [ 0.5, 0.0, 0.0, 1.0 ],
					"patching_rect" : [ 376.0, 161.288971, 14.171288, 14.171288 ],
					"varname" : "output-button-1"
				}

			}
, 			{
				"box" : 				{
					"border" : 1.0,
					"fontname" : "Arial",
					"fontsize" : 9.0,
					"frgb" : 0.0,
					"id" : "obj-1303",
					"keymode" : 1,
					"lines" : 1,
					"maxclass" : "textedit",
					"numinlets" : 1,
					"numoutlets" : 4,
					"outlettype" : [ "", "int", "", "" ],
					"parameter_enable" : 0,
					"patching_rect" : [ 395.171295, 161.288971, 100.0, 14.171288 ],
					"text" : "world",
					"varname" : "output-label-1"
				}

			}
, 			{
				"box" : 				{
					"blinkcolor" : [ 1.0, 0.5, 0.0, 1.0 ],
					"id" : "obj-1306",
					"ignoreclick" : 1,
					"maxclass" : "button",
					"numinlets" : 1,
					"numoutlets" : 1,
					"outlettype" : [ "bang" ],
					"outlinecolor" : [ 0.5, 0.0, 0.0, 1.0 ],
					"patching_rect" : [ 376.0, 175.601974, 14.171288, 14.171288 ],
					"varname" : "output-button-2"
				}

			}
, 			{
				"box" : 				{
					"border" : 1.0,
					"fontname" : "Arial",
					"fontsize" : 9.0,
					"frgb" : 0.0,
					"id" : "obj-1308",
					"keymode" : 1,
					"lines" : 1,
					"maxclass" : "textedit",
					"numinlets" : 1,
					"numoutlets" : 4,
					"outlettype" : [ "", "int", "", "" ],
					"parameter_enable" : 0,
					"patching_rect" : [ 395.171295, 175.601974, 100.0, 14.171288 ],
					"varname" : "output-label-2"
				}

			}
, 			{
				"box" : 				{
					"blinkcolor" : [ 1.0, 0.5, 0.0, 1.0 ],
					"id" : "obj-1311",
					"ignoreclick" : 1,
					"maxclass" : "button",
					"numinlets" : 1,
					"numoutlets" : 1,
					"outlettype" : [ "bang" ],
					"outlinecolor" : [ 0.5, 0.0, 0.0, 1.0 ],
					"patching_rect" : [ 376.0, 189.773254, 14.171288, 14.171288 ],
					"varname" : "output-button-3"
				}

			}
, 			{
				"box" : 				{
					"border" : 1.0,
					"fontname" : "Arial",
					"fontsize" : 9.0,
					"frgb" : 0.0,
					"id" : "obj-1313",
					"keymode" : 1,
					"lines" : 1,
					"maxclass" : "textedit",
					"numinlets" : 1,
					"numoutlets" : 4,
					"outlettype" : [ "", "int", "", "" ],
					"parameter_enable" : 0,
					"patching_rect" : [ 395.171295, 189.773254, 100.0, 14.171288 ],
					"varname" : "output-label-3"
				}

			}
, 			{
				"box" : 				{
					"blinkcolor" : [ 1.0, 0.5, 0.0, 1.0 ],
					"id" : "obj-1316",
					"ignoreclick" : 1,
					"maxclass" : "button",
					"numinlets" : 1,
					"numoutlets" : 1,
					"outlettype" : [ "bang" ],
					"outlinecolor" : [ 0.5, 0.0, 0.0, 1.0 ],
					"patching_rect" : [ 376.0, 203.94455, 14.171288, 14.171288 ],
					"varname" : "output-button-4"
				}

			}
, 			{
				"box" : 				{
					"border" : 1.0,
					"fontname" : "Arial",
					"fontsize" : 9.0,
					"frgb" : 0.0,
					"id" : "obj-1318",
					"keymode" : 1,
					"lines" : 1,
					"maxclass" : "textedit",
					"numinlets" : 1,
					"numoutlets" : 4,
					"outlettype" : [ "", "int", "", "" ],
					"parameter_enable" : 0,
					"patching_rect" : [ 395.171295, 203.94455, 100.0, 14.171288 ],
					"varname" : "output-label-4"
				}

			}
, 			{
				"box" : 				{
					"blinkcolor" : [ 1.0, 0.5, 0.0, 1.0 ],
					"id" : "obj-1321",
					"ignoreclick" : 1,
					"maxclass" : "button",
					"numinlets" : 1,
					"numoutlets" : 1,
					"outlettype" : [ "bang" ],
					"outlinecolor" : [ 0.5, 0.0, 0.0, 1.0 ],
					"patching_rect" : [ 376.0, 218.115829, 14.171288, 14.171288 ],
					"varname" : "output-button-5"
				}

			}
, 			{
				"box" : 				{
					"border" : 1.0,
					"fontname" : "Arial",
					"fontsize" : 9.0,
					"frgb" : 0.0,
					"id" : "obj-1323",
					"keymode" : 1,
					"lines" : 1,
					"maxclass" : "textedit",
					"numinlets" : 1,
					"numoutlets" : 4,
					"outlettype" : [ "", "int", "", "" ],
					"parameter_enable" : 0,
					"patching_rect" : [ 395.171295, 218.115829, 100.0, 14.171288 ],
					"varname" : "output-label-5"
				}

			}
, 			{
				"box" : 				{
					"blinkcolor" : [ 1.0, 0.5, 0.0, 1.0 ],
					"id" : "obj-1326",
					"ignoreclick" : 1,
					"maxclass" : "button",
					"numinlets" : 1,
					"numoutlets" : 1,
					"outlettype" : [ "bang" ],
					"outlinecolor" : [ 0.5, 0.0, 0.0, 1.0 ],
					"patching_rect" : [ 376.0, 232.287125, 14.171288, 14.171288 ],
					"varname" : "output-button-6"
				}

			}
, 			{
				"box" : 				{
					"border" : 1.0,
					"fontname" : "Arial",
					"fontsize" : 9.0,
					"frgb" : 0.0,
					"id" : "obj-1328",
					"keymode" : 1,
					"lines" : 1,
					"maxclass" : "textedit",
					"numinlets" : 1,
					"numoutlets" : 4,
					"outlettype" : [ "", "int", "", "" ],
					"parameter_enable" : 0,
					"patching_rect" : [ 395.171295, 232.287125, 100.0, 14.171288 ],
					"varname" : "output-label-6"
				}

			}
, 			{
				"box" : 				{
					"blinkcolor" : [ 1.0, 0.5, 0.0, 1.0 ],
					"id" : "obj-1331",
					"ignoreclick" : 1,
					"maxclass" : "button",
					"numinlets" : 1,
					"numoutlets" : 1,
					"outlettype" : [ "bang" ],
					"outlinecolor" : [ 0.5, 0.0, 0.0, 1.0 ],
					"patching_rect" : [ 376.0, 246.458405, 14.171288, 14.171288 ],
					"varname" : "output-button-7"
				}

			}
, 			{
				"box" : 				{
					"border" : 1.0,
					"fontname" : "Arial",
					"fontsize" : 9.0,
					"frgb" : 0.0,
					"id" : "obj-1333",
					"keymode" : 1,
					"lines" : 1,
					"maxclass" : "textedit",
					"numinlets" : 1,
					"numoutlets" : 4,
					"outlettype" : [ "", "int", "", "" ],
					"parameter_enable" : 0,
					"patching_rect" : [ 395.171295, 246.458405, 100.0, 14.171288 ],
					"varname" : "output-label-7"
				}

			}
, 			{
				"box" : 				{
					"blinkcolor" : [ 1.0, 0.5, 0.0, 1.0 ],
					"id" : "obj-1336",
					"ignoreclick" : 1,
					"maxclass" : "button",
					"numinlets" : 1,
					"numoutlets" : 1,
					"outlettype" : [ "bang" ],
					"outlinecolor" : [ 0.5, 0.0, 0.0, 1.0 ],
					"patching_rect" : [ 376.0, 260.6297, 14.171288, 14.171288 ],
					"varname" : "output-button-8"
				}

			}
, 			{
				"box" : 				{
					"border" : 1.0,
					"fontname" : "Arial",
					"fontsize" : 9.0,
					"frgb" : 0.0,
					"id" : "obj-1338",
					"keymode" : 1,
					"lines" : 1,
					"maxclass" : "textedit",
					"numinlets" : 1,
					"numoutlets" : 4,
					"outlettype" : [ "", "int", "", "" ],
					"parameter_enable" : 0,
					"patching_rect" : [ 395.171295, 260.6297, 100.0, 14.171288 ],
					"varname" : "output-label-8"
				}

			}
, 			{
				"box" : 				{
					"blinkcolor" : [ 1.0, 0.5, 0.0, 1.0 ],
					"id" : "obj-1341",
					"ignoreclick" : 1,
					"maxclass" : "button",
					"numinlets" : 1,
					"numoutlets" : 1,
					"outlettype" : [ "bang" ],
					"outlinecolor" : [ 0.5, 0.0, 0.0, 1.0 ],
					"patching_rect" : [ 376.0, 274.800995, 14.171288, 14.171288 ],
					"varname" : "output-button-9"
				}

			}
, 			{
				"box" : 				{
					"border" : 1.0,
					"fontname" : "Arial",
					"fontsize" : 9.0,
					"frgb" : 0.0,
					"id" : "obj-1343",
					"keymode" : 1,
					"lines" : 1,
					"maxclass" : "textedit",
					"numinlets" : 1,
					"numoutlets" : 4,
					"outlettype" : [ "", "int", "", "" ],
					"parameter_enable" : 0,
					"patching_rect" : [ 395.171295, 274.800995, 100.0, 14.171288 ],
					"varname" : "output-label-9"
				}

			}
, 			{
				"box" : 				{
					"blinkcolor" : [ 1.0, 0.5, 0.0, 1.0 ],
					"id" : "obj-1346",
					"ignoreclick" : 1,
					"maxclass" : "button",
					"numinlets" : 1,
					"numoutlets" : 1,
					"outlettype" : [ "bang" ],
					"outlinecolor" : [ 0.5, 0.0, 0.0, 1.0 ],
					"patching_rect" : [ 376.0, 288.97226, 14.171288, 14.171288 ],
					"varname" : "output-button-10"
				}

			}
, 			{
				"box" : 				{
					"border" : 1.0,
					"fontname" : "Arial",
					"fontsize" : 9.0,
					"frgb" : 0.0,
					"id" : "obj-1348",
					"keymode" : 1,
					"lines" : 1,
					"maxclass" : "textedit",
					"numinlets" : 1,
					"numoutlets" : 4,
					"outlettype" : [ "", "int", "", "" ],
					"parameter_enable" : 0,
					"patching_rect" : [ 395.171295, 288.97226, 100.0, 14.171288 ],
					"varname" : "output-label-10"
				}

			}
, 			{
				"box" : 				{
					"blinkcolor" : [ 1.0, 0.5, 0.0, 1.0 ],
					"id" : "obj-1351",
					"ignoreclick" : 1,
					"maxclass" : "button",
					"numinlets" : 1,
					"numoutlets" : 1,
					"outlettype" : [ "bang" ],
					"outlinecolor" : [ 0.5, 0.0, 0.0, 1.0 ],
					"patching_rect" : [ 376.0, 303.143555, 14.171288, 14.171288 ],
					"varname" : "output-button-11"
				}

			}
, 			{
				"box" : 				{
					"border" : 1.0,
					"fontname" : "Arial",
					"fontsize" : 9.0,
					"frgb" : 0.0,
					"id" : "obj-1353",
					"keymode" : 1,
					"lines" : 1,
					"maxclass" : "textedit",
					"numinlets" : 1,
					"numoutlets" : 4,
					"outlettype" : [ "", "int", "", "" ],
					"parameter_enable" : 0,
					"patching_rect" : [ 395.171295, 303.143555, 100.0, 14.171288 ],
					"varname" : "output-label-11"
				}

			}
, 			{
				"box" : 				{
					"blinkcolor" : [ 1.0, 0.5, 0.0, 1.0 ],
					"id" : "obj-1356",
					"ignoreclick" : 1,
					"maxclass" : "button",
					"numinlets" : 1,
					"numoutlets" : 1,
					"outlettype" : [ "bang" ],
					"outlinecolor" : [ 0.5, 0.0, 0.0, 1.0 ],
					"patching_rect" : [ 376.0, 317.31485, 14.171288, 14.171288 ],
					"varname" : "output-button-12"
				}

			}
, 			{
				"box" : 				{
					"border" : 1.0,
					"fontname" : "Arial",
					"fontsize" : 9.0,
					"frgb" : 0.0,
					"id" : "obj-1358",
					"keymode" : 1,
					"lines" : 1,
					"maxclass" : "textedit",
					"numinlets" : 1,
					"numoutlets" : 4,
					"outlettype" : [ "", "int", "", "" ],
					"parameter_enable" : 0,
					"patching_rect" : [ 395.171295, 317.31485, 100.0, 14.171288 ],
					"varname" : "output-label-12"
				}

			}
, 			{
				"box" : 				{
					"blinkcolor" : [ 1.0, 0.5, 0.0, 1.0 ],
					"id" : "obj-1361",
					"ignoreclick" : 1,
					"maxclass" : "button",
					"numinlets" : 1,
					"numoutlets" : 1,
					"outlettype" : [ "bang" ],
					"outlinecolor" : [ 0.5, 0.0, 0.0, 1.0 ],
					"patching_rect" : [ 376.0, 331.486145, 14.171288, 14.171288 ],
					"varname" : "output-button-13"
				}

			}
, 			{
				"box" : 				{
					"border" : 1.0,
					"fontname" : "Arial",
					"fontsize" : 9.0,
					"frgb" : 0.0,
					"id" : "obj-1363",
					"keymode" : 1,
					"lines" : 1,
					"maxclass" : "textedit",
					"numinlets" : 1,
					"numoutlets" : 4,
					"outlettype" : [ "", "int", "", "" ],
					"parameter_enable" : 0,
					"patching_rect" : [ 395.171295, 331.486145, 100.0, 14.171288 ],
					"varname" : "output-label-13"
				}

			}
, 			{
				"box" : 				{
					"blinkcolor" : [ 1.0, 0.5, 0.0, 1.0 ],
					"id" : "obj-1366",
					"ignoreclick" : 1,
					"maxclass" : "button",
					"numinlets" : 1,
					"numoutlets" : 1,
					"outlettype" : [ "bang" ],
					"outlinecolor" : [ 0.5, 0.0, 0.0, 1.0 ],
					"patching_rect" : [ 376.0, 345.65741, 14.171288, 14.171288 ],
					"varname" : "output-button-14"
				}

			}
, 			{
				"box" : 				{
					"border" : 1.0,
					"fontname" : "Arial",
					"fontsize" : 9.0,
					"frgb" : 0.0,
					"id" : "obj-1368",
					"keymode" : 1,
					"lines" : 1,
					"maxclass" : "textedit",
					"numinlets" : 1,
					"numoutlets" : 4,
					"outlettype" : [ "", "int", "", "" ],
					"parameter_enable" : 0,
					"patching_rect" : [ 395.171295, 345.65741, 100.0, 14.171288 ],
					"varname" : "output-label-14"
				}

			}
, 			{
				"box" : 				{
					"blinkcolor" : [ 1.0, 0.5, 0.0, 1.0 ],
					"id" : "obj-1371",
					"ignoreclick" : 1,
					"maxclass" : "button",
					"numinlets" : 1,
					"numoutlets" : 1,
					"outlettype" : [ "bang" ],
					"outlinecolor" : [ 0.5, 0.0, 0.0, 1.0 ],
					"patching_rect" : [ 376.0, 359.828705, 14.171288, 14.171288 ],
					"varname" : "output-button-15"
				}

			}
, 			{
				"box" : 				{
					"border" : 1.0,
					"fontname" : "Arial",
					"fontsize" : 9.0,
					"frgb" : 0.0,
					"id" : "obj-1373",
					"keymode" : 1,
					"lines" : 1,
					"maxclass" : "textedit",
					"numinlets" : 1,
					"numoutlets" : 4,
					"outlettype" : [ "", "int", "", "" ],
					"parameter_enable" : 0,
					"patching_rect" : [ 395.171295, 359.828705, 100.0, 14.171288 ],
					"varname" : "output-label-15"
				}

			}
 ],
		"lines" : [ 			{
				"patchline" : 				{
					"destination" : [ "obj-1", 0 ],
					"disabled" : 0,
					"hidden" : 0,
					"source" : [ "obj-16", 0 ]
				}

			}
, 			{
				"patchline" : 				{
					"destination" : [ "obj-173", 0 ],
					"disabled" : 0,
					"hidden" : 0,
					"source" : [ "obj-166", 1 ]
				}

			}
, 			{
				"patchline" : 				{
					"destination" : [ "obj-1", 0 ],
					"disabled" : 0,
					"hidden" : 0,
					"source" : [ "obj-173", 0 ]
				}

			}
, 			{
				"patchline" : 				{
					"destination" : [ "obj-1", 0 ],
					"disabled" : 0,
					"hidden" : 0,
					"source" : [ "obj-3", 0 ]
				}

			}
, 			{
				"patchline" : 				{
					"destination" : [ "obj-1", 0 ],
					"disabled" : 0,
					"hidden" : 0,
					"source" : [ "obj-5", 0 ]
				}

			}
 ],
		"parameters" : 		{
			"obj-170::obj-75" : [ "0_waveform_multiplier", "0_waveform_multiplier", 0 ],
			"obj-170::obj-74" : [ "rslider[3]", "rslider", 0 ]
		}
,
		"dependency_cache" : [ 			{
				"name" : "crossmatrix.jso",
				"bootpath" : "/development/swirly/max/crossmatrix",
				"patcherrelativepath" : ".",
				"type" : "TEXT",
				"implicit" : 1
			}
, 			{
				"name" : "crossmatrix-control.maxpat",
				"bootpath" : "/development/swirly/max/crossmatrix",
				"patcherrelativepath" : ".",
				"type" : "JSON",
				"implicit" : 1
			}
, 			{
				"name" : "keyrepeat.maxpat",
				"bootpath" : "/development/swirly/max/crossmatrix",
				"patcherrelativepath" : ".",
				"type" : "JSON",
				"implicit" : 1
			}
, 			{
				"name" : "tlfo.maxpat",
				"bootpath" : "/development/swirly/max/nanolaser",
				"patcherrelativepath" : "../nanolaser",
				"type" : "JSON",
				"implicit" : 1
			}
, 			{
				"name" : "BasicLFO.gendsp",
				"bootpath" : "/development/swirly/max/nanolaser",
				"patcherrelativepath" : "../nanolaser",
				"type" : "gDSP",
				"implicit" : 1
			}
, 			{
				"name" : "toDMX.maxpat",
				"bootpath" : "/development/swirly/max/nanolaser",
				"patcherrelativepath" : "../nanolaser",
				"type" : "JSON",
				"implicit" : 1
			}
 ]
	}

}
