{
	"patcher" : 	{
		"fileversion" : 1,
		"appversion" : 		{
			"major" : 6,
			"minor" : 1,
			"revision" : 10,
			"architecture" : "x86"
		}
,
		"rect" : [ 62.0, 511.0, 890.0, 563.0 ],
		"bglocked" : 0,
		"openinpresentation" : 0,
		"default_fontsize" : 12.0,
		"default_fontface" : 0,
		"default_fontname" : "Arial",
		"gridonopen" : 0,
		"gridsize" : [ 15.0, 15.0 ],
		"gridsnaponopen" : 0,
		"statusbarvisible" : 2,
		"toolbarvisible" : 1,
		"boxanimatetime" : 200,
		"imprint" : 0,
		"enablehscroll" : 1,
		"enablevscroll" : 1,
		"devicewidth" : 0.0,
		"description" : "",
		"digest" : "",
		"tags" : "",
		"boxes" : [ 			{
				"box" : 				{
					"border" : 1.0,
					"fontname" : "Arial",
					"fontsize" : 9.0,
					"frgb" : 0.0,
					"id" : "obj-101",
					"lines" : 1,
					"maxclass" : "textedit",
					"numinlets" : 1,
					"numoutlets" : 4,
					"outlettype" : [ "", "int", "", "" ],
					"parameter_enable" : 0,
					"patching_rect" : [ 527.0, 229.458405, 80.0, 15.82872 ],
					"text" : "hello there"
				}

			}
, 			{
				"box" : 				{
					"fontname" : "Arial",
					"fontsize" : 12.0,
					"id" : "obj-732",
					"maxclass" : "message",
					"numinlets" : 2,
					"numoutlets" : 1,
					"outlettype" : [ "" ],
					"patching_rect" : [ 635.0, 448.0, 50.0, 18.0 ],
					"text" : "\"0\" \"15\""
				}

			}
, 			{
				"box" : 				{
					"fontname" : "Arial",
					"fontsize" : 12.0,
					"id" : "obj-5",
					"maxclass" : "number",
					"numinlets" : 1,
					"numoutlets" : 2,
					"outlettype" : [ "int", "bang" ],
					"parameter_enable" : 0,
					"patching_rect" : [ 271.0, 34.0, 50.0, 20.0 ]
				}

			}
, 			{
				"box" : 				{
					"fontname" : "Arial",
					"fontsize" : 12.0,
					"id" : "obj-3",
					"maxclass" : "message",
					"numinlets" : 2,
					"numoutlets" : 1,
					"outlettype" : [ "" ],
					"patching_rect" : [ 36.0, 34.0, 50.0, 18.0 ],
					"text" : "compile"
				}

			}
, 			{
				"box" : 				{
					"id" : "obj-16",
					"maxclass" : "bpatcher",
					"name" : "crossmatrix-control.maxpat",
					"numinlets" : 0,
					"numoutlets" : 1,
					"outlettype" : [ "" ],
					"patching_rect" : [ 131.5, 67.0, 111.0, 24.0 ]
				}

			}
, 			{
				"box" : 				{
					"border" : 0,
					"filename" : "crossmatrix.jso",
					"id" : "obj-1",
					"jsarguments" : [ 16, 16 ],
					"maxclass" : "jsui",
					"numinlets" : 1,
					"numoutlets" : 2,
					"outlettype" : [ "", "" ],
					"parameter_enable" : 0,
					"patching_rect" : [ 143.795105, 144.0, 230.066803, 230.717621 ]
				}

			}
 ],
		"lines" : [ 			{
				"patchline" : 				{
					"destination" : [ "obj-1", 0 ],
					"disabled" : 0,
					"hidden" : 0,
					"source" : [ "obj-16", 0 ]
				}

			}
, 			{
				"patchline" : 				{
					"destination" : [ "obj-1", 0 ],
					"disabled" : 0,
					"hidden" : 0,
					"source" : [ "obj-3", 0 ]
				}

			}
, 			{
				"patchline" : 				{
					"destination" : [ "obj-1", 0 ],
					"disabled" : 0,
					"hidden" : 0,
					"source" : [ "obj-5", 0 ]
				}

			}
 ],
		"dependency_cache" : [ 			{
				"name" : "crossmatrix.jso",
				"bootpath" : "/development/swirly/max/crossmatrix",
				"patcherrelativepath" : ".",
				"type" : "TEXT",
				"implicit" : 1
			}
, 			{
				"name" : "crossmatrix-control.maxpat",
				"bootpath" : "/development/swirly/max/crossmatrix",
				"patcherrelativepath" : ".",
				"type" : "JSON",
				"implicit" : 1
			}
, 			{
				"name" : "keyrepeat.maxpat",
				"bootpath" : "/development/swirly/max/crossmatrix",
				"patcherrelativepath" : ".",
				"type" : "JSON",
				"implicit" : 1
			}
 ]
	}

}
