{
	"patcher" : 	{
		"fileversion" : 1,
		"appversion" : 		{
			"major" : 6,
			"minor" : 1,
			"revision" : 10,
			"architecture" : "x86"
		}
,
		"rect" : [ 38.0, 60.0, 1268.0, 563.0 ],
		"bglocked" : 0,
		"openinpresentation" : 0,
		"default_fontsize" : 12.0,
		"default_fontface" : 0,
		"default_fontname" : "Arial",
		"gridonopen" : 0,
		"gridsize" : [ 15.0, 15.0 ],
		"gridsnaponopen" : 0,
		"statusbarvisible" : 2,
		"toolbarvisible" : 1,
		"boxanimatetime" : 200,
		"imprint" : 0,
		"enablehscroll" : 1,
		"enablevscroll" : 1,
		"devicewidth" : 0.0,
		"description" : "",
		"digest" : "",
		"tags" : "",
		"boxes" : [ 			{
				"box" : 				{
					"fontname" : "Arial",
					"fontsize" : 12.0,
					"id" : "obj-732",
					"maxclass" : "message",
					"numinlets" : 2,
					"numoutlets" : 1,
					"outlettype" : [ "" ],
					"patching_rect" : [ 635.0, 448.0, 50.0, 18.0 ],
					"text" : "\"52\" \"9\""
				}

			}
, 			{
				"box" : 				{
					"fontname" : "Arial",
					"fontsize" : 12.0,
					"id" : "obj-5",
					"maxclass" : "number",
					"numinlets" : 1,
					"numoutlets" : 2,
					"outlettype" : [ "int", "bang" ],
					"parameter_enable" : 0,
					"patching_rect" : [ 271.0, 34.0, 50.0, 20.0 ]
				}

			}
, 			{
				"box" : 				{
					"fontname" : "Arial",
					"fontsize" : 12.0,
					"id" : "obj-3",
					"maxclass" : "message",
					"numinlets" : 2,
					"numoutlets" : 1,
					"outlettype" : [ "" ],
					"patching_rect" : [ 36.0, 34.0, 50.0, 18.0 ],
					"text" : "compile"
				}

			}
, 			{
				"box" : 				{
					"id" : "obj-16",
					"maxclass" : "bpatcher",
					"name" : "crossmatrix-control.maxpat",
					"numinlets" : 0,
					"numoutlets" : 1,
					"outlettype" : [ "" ],
					"patching_rect" : [ 131.5, 67.0, 111.0, 24.0 ]
				}

			}
, 			{
				"box" : 				{
					"filename" : "crossmatrix.jso",
					"id" : "obj-1",
					"jsarguments" : [ 20, 60 ],
					"maxclass" : "jsui",
					"numinlets" : 2,
					"numoutlets" : 2,
					"outlettype" : [ "", "" ],
					"parameter_enable" : 0,
					"patching_rect" : [ 36.0, 161.0, 656.0, 228.0 ]
				}

			}
, 			{
				"box" : 				{
					"blinkcolor" : [ 0.5, 1.0, 0.0, 1.0 ],
					"id" : "obj-496",
					"ignoreclick" : 1,
					"maxclass" : "button",
					"numinlets" : 1,
					"numoutlets" : 1,
					"outlettype" : [ "bang" ],
					"patching_rect" : [ 38.0, 151.0, 10.0, 10.0 ],
					"varname" : "input-button-0"
				}

			}
, 			{
				"box" : 				{
					"blinkcolor" : [ 0.5, 1.0, 0.0, 1.0 ],
					"id" : "obj-498",
					"ignoreclick" : 1,
					"maxclass" : "button",
					"numinlets" : 1,
					"numoutlets" : 1,
					"outlettype" : [ "bang" ],
					"patching_rect" : [ 48.891582, 151.0, 10.0, 10.0 ],
					"varname" : "input-button-1"
				}

			}
, 			{
				"box" : 				{
					"blinkcolor" : [ 0.5, 1.0, 0.0, 1.0 ],
					"id" : "obj-500",
					"ignoreclick" : 1,
					"maxclass" : "button",
					"numinlets" : 1,
					"numoutlets" : 1,
					"outlettype" : [ "bang" ],
					"patching_rect" : [ 59.783165, 151.0, 10.0, 10.0 ],
					"varname" : "input-button-2"
				}

			}
, 			{
				"box" : 				{
					"blinkcolor" : [ 0.5, 1.0, 0.0, 1.0 ],
					"id" : "obj-502",
					"ignoreclick" : 1,
					"maxclass" : "button",
					"numinlets" : 1,
					"numoutlets" : 1,
					"outlettype" : [ "bang" ],
					"patching_rect" : [ 70.674744, 151.0, 10.0, 10.0 ],
					"varname" : "input-button-3"
				}

			}
, 			{
				"box" : 				{
					"blinkcolor" : [ 0.5, 1.0, 0.0, 1.0 ],
					"id" : "obj-504",
					"ignoreclick" : 1,
					"maxclass" : "button",
					"numinlets" : 1,
					"numoutlets" : 1,
					"outlettype" : [ "bang" ],
					"patching_rect" : [ 81.56633, 151.0, 10.0, 10.0 ],
					"varname" : "input-button-4"
				}

			}
, 			{
				"box" : 				{
					"blinkcolor" : [ 0.5, 1.0, 0.0, 1.0 ],
					"id" : "obj-506",
					"ignoreclick" : 1,
					"maxclass" : "button",
					"numinlets" : 1,
					"numoutlets" : 1,
					"outlettype" : [ "bang" ],
					"patching_rect" : [ 92.457909, 151.0, 10.0, 10.0 ],
					"varname" : "input-button-5"
				}

			}
, 			{
				"box" : 				{
					"blinkcolor" : [ 0.5, 1.0, 0.0, 1.0 ],
					"id" : "obj-508",
					"ignoreclick" : 1,
					"maxclass" : "button",
					"numinlets" : 1,
					"numoutlets" : 1,
					"outlettype" : [ "bang" ],
					"patching_rect" : [ 103.349495, 151.0, 10.0, 10.0 ],
					"varname" : "input-button-6"
				}

			}
, 			{
				"box" : 				{
					"blinkcolor" : [ 0.5, 1.0, 0.0, 1.0 ],
					"id" : "obj-510",
					"ignoreclick" : 1,
					"maxclass" : "button",
					"numinlets" : 1,
					"numoutlets" : 1,
					"outlettype" : [ "bang" ],
					"patching_rect" : [ 114.241074, 151.0, 10.0, 10.0 ],
					"varname" : "input-button-7"
				}

			}
, 			{
				"box" : 				{
					"blinkcolor" : [ 0.5, 1.0, 0.0, 1.0 ],
					"id" : "obj-512",
					"ignoreclick" : 1,
					"maxclass" : "button",
					"numinlets" : 1,
					"numoutlets" : 1,
					"outlettype" : [ "bang" ],
					"patching_rect" : [ 125.13266, 151.0, 10.0, 10.0 ],
					"varname" : "input-button-8"
				}

			}
, 			{
				"box" : 				{
					"blinkcolor" : [ 0.5, 1.0, 0.0, 1.0 ],
					"id" : "obj-514",
					"ignoreclick" : 1,
					"maxclass" : "button",
					"numinlets" : 1,
					"numoutlets" : 1,
					"outlettype" : [ "bang" ],
					"patching_rect" : [ 136.024246, 151.0, 10.0, 10.0 ],
					"varname" : "input-button-9"
				}

			}
, 			{
				"box" : 				{
					"blinkcolor" : [ 0.5, 1.0, 0.0, 1.0 ],
					"id" : "obj-516",
					"ignoreclick" : 1,
					"maxclass" : "button",
					"numinlets" : 1,
					"numoutlets" : 1,
					"outlettype" : [ "bang" ],
					"patching_rect" : [ 146.915817, 151.0, 10.0, 10.0 ],
					"varname" : "input-button-10"
				}

			}
, 			{
				"box" : 				{
					"blinkcolor" : [ 0.5, 1.0, 0.0, 1.0 ],
					"id" : "obj-518",
					"ignoreclick" : 1,
					"maxclass" : "button",
					"numinlets" : 1,
					"numoutlets" : 1,
					"outlettype" : [ "bang" ],
					"patching_rect" : [ 157.807404, 151.0, 10.0, 10.0 ],
					"varname" : "input-button-11"
				}

			}
, 			{
				"box" : 				{
					"blinkcolor" : [ 0.5, 1.0, 0.0, 1.0 ],
					"id" : "obj-520",
					"ignoreclick" : 1,
					"maxclass" : "button",
					"numinlets" : 1,
					"numoutlets" : 1,
					"outlettype" : [ "bang" ],
					"patching_rect" : [ 168.69899, 151.0, 10.0, 10.0 ],
					"varname" : "input-button-12"
				}

			}
, 			{
				"box" : 				{
					"blinkcolor" : [ 0.5, 1.0, 0.0, 1.0 ],
					"id" : "obj-522",
					"ignoreclick" : 1,
					"maxclass" : "button",
					"numinlets" : 1,
					"numoutlets" : 1,
					"outlettype" : [ "bang" ],
					"patching_rect" : [ 179.590576, 151.0, 10.0, 10.0 ],
					"varname" : "input-button-13"
				}

			}
, 			{
				"box" : 				{
					"blinkcolor" : [ 0.5, 1.0, 0.0, 1.0 ],
					"id" : "obj-524",
					"ignoreclick" : 1,
					"maxclass" : "button",
					"numinlets" : 1,
					"numoutlets" : 1,
					"outlettype" : [ "bang" ],
					"patching_rect" : [ 190.482147, 151.0, 10.0, 10.0 ],
					"varname" : "input-button-14"
				}

			}
, 			{
				"box" : 				{
					"blinkcolor" : [ 0.5, 1.0, 0.0, 1.0 ],
					"id" : "obj-526",
					"ignoreclick" : 1,
					"maxclass" : "button",
					"numinlets" : 1,
					"numoutlets" : 1,
					"outlettype" : [ "bang" ],
					"patching_rect" : [ 201.373734, 151.0, 10.0, 10.0 ],
					"varname" : "input-button-15"
				}

			}
, 			{
				"box" : 				{
					"blinkcolor" : [ 0.5, 1.0, 0.0, 1.0 ],
					"id" : "obj-528",
					"ignoreclick" : 1,
					"maxclass" : "button",
					"numinlets" : 1,
					"numoutlets" : 1,
					"outlettype" : [ "bang" ],
					"patching_rect" : [ 212.26532, 151.0, 10.0, 10.0 ],
					"varname" : "input-button-16"
				}

			}
, 			{
				"box" : 				{
					"blinkcolor" : [ 0.5, 1.0, 0.0, 1.0 ],
					"id" : "obj-530",
					"ignoreclick" : 1,
					"maxclass" : "button",
					"numinlets" : 1,
					"numoutlets" : 1,
					"outlettype" : [ "bang" ],
					"patching_rect" : [ 223.156906, 151.0, 10.0, 10.0 ],
					"varname" : "input-button-17"
				}

			}
, 			{
				"box" : 				{
					"blinkcolor" : [ 0.5, 1.0, 0.0, 1.0 ],
					"id" : "obj-532",
					"ignoreclick" : 1,
					"maxclass" : "button",
					"numinlets" : 1,
					"numoutlets" : 1,
					"outlettype" : [ "bang" ],
					"patching_rect" : [ 234.048477, 151.0, 10.0, 10.0 ],
					"varname" : "input-button-18"
				}

			}
, 			{
				"box" : 				{
					"blinkcolor" : [ 0.5, 1.0, 0.0, 1.0 ],
					"id" : "obj-534",
					"ignoreclick" : 1,
					"maxclass" : "button",
					"numinlets" : 1,
					"numoutlets" : 1,
					"outlettype" : [ "bang" ],
					"patching_rect" : [ 244.940063, 151.0, 10.0, 10.0 ],
					"varname" : "input-button-19"
				}

			}
, 			{
				"box" : 				{
					"blinkcolor" : [ 0.5, 1.0, 0.0, 1.0 ],
					"id" : "obj-536",
					"ignoreclick" : 1,
					"maxclass" : "button",
					"numinlets" : 1,
					"numoutlets" : 1,
					"outlettype" : [ "bang" ],
					"patching_rect" : [ 255.83165, 151.0, 10.0, 10.0 ],
					"varname" : "input-button-20"
				}

			}
, 			{
				"box" : 				{
					"blinkcolor" : [ 0.5, 1.0, 0.0, 1.0 ],
					"id" : "obj-538",
					"ignoreclick" : 1,
					"maxclass" : "button",
					"numinlets" : 1,
					"numoutlets" : 1,
					"outlettype" : [ "bang" ],
					"patching_rect" : [ 266.723236, 151.0, 10.0, 10.0 ],
					"varname" : "input-button-21"
				}

			}
, 			{
				"box" : 				{
					"blinkcolor" : [ 0.5, 1.0, 0.0, 1.0 ],
					"id" : "obj-540",
					"ignoreclick" : 1,
					"maxclass" : "button",
					"numinlets" : 1,
					"numoutlets" : 1,
					"outlettype" : [ "bang" ],
					"patching_rect" : [ 277.614807, 151.0, 10.0, 10.0 ],
					"varname" : "input-button-22"
				}

			}
, 			{
				"box" : 				{
					"blinkcolor" : [ 0.5, 1.0, 0.0, 1.0 ],
					"id" : "obj-542",
					"ignoreclick" : 1,
					"maxclass" : "button",
					"numinlets" : 1,
					"numoutlets" : 1,
					"outlettype" : [ "bang" ],
					"patching_rect" : [ 288.506378, 151.0, 10.0, 10.0 ],
					"varname" : "input-button-23"
				}

			}
, 			{
				"box" : 				{
					"blinkcolor" : [ 0.5, 1.0, 0.0, 1.0 ],
					"id" : "obj-544",
					"ignoreclick" : 1,
					"maxclass" : "button",
					"numinlets" : 1,
					"numoutlets" : 1,
					"outlettype" : [ "bang" ],
					"patching_rect" : [ 299.39798, 151.0, 10.0, 10.0 ],
					"varname" : "input-button-24"
				}

			}
, 			{
				"box" : 				{
					"blinkcolor" : [ 0.5, 1.0, 0.0, 1.0 ],
					"id" : "obj-546",
					"ignoreclick" : 1,
					"maxclass" : "button",
					"numinlets" : 1,
					"numoutlets" : 1,
					"outlettype" : [ "bang" ],
					"patching_rect" : [ 310.289551, 151.0, 10.0, 10.0 ],
					"varname" : "input-button-25"
				}

			}
, 			{
				"box" : 				{
					"blinkcolor" : [ 0.5, 1.0, 0.0, 1.0 ],
					"id" : "obj-548",
					"ignoreclick" : 1,
					"maxclass" : "button",
					"numinlets" : 1,
					"numoutlets" : 1,
					"outlettype" : [ "bang" ],
					"patching_rect" : [ 321.181152, 151.0, 10.0, 10.0 ],
					"varname" : "input-button-26"
				}

			}
, 			{
				"box" : 				{
					"blinkcolor" : [ 0.5, 1.0, 0.0, 1.0 ],
					"id" : "obj-550",
					"ignoreclick" : 1,
					"maxclass" : "button",
					"numinlets" : 1,
					"numoutlets" : 1,
					"outlettype" : [ "bang" ],
					"patching_rect" : [ 332.072723, 151.0, 10.0, 10.0 ],
					"varname" : "input-button-27"
				}

			}
, 			{
				"box" : 				{
					"blinkcolor" : [ 0.5, 1.0, 0.0, 1.0 ],
					"id" : "obj-552",
					"ignoreclick" : 1,
					"maxclass" : "button",
					"numinlets" : 1,
					"numoutlets" : 1,
					"outlettype" : [ "bang" ],
					"patching_rect" : [ 342.964294, 151.0, 10.0, 10.0 ],
					"varname" : "input-button-28"
				}

			}
, 			{
				"box" : 				{
					"blinkcolor" : [ 0.5, 1.0, 0.0, 1.0 ],
					"id" : "obj-554",
					"ignoreclick" : 1,
					"maxclass" : "button",
					"numinlets" : 1,
					"numoutlets" : 1,
					"outlettype" : [ "bang" ],
					"patching_rect" : [ 353.855896, 151.0, 10.0, 10.0 ],
					"varname" : "input-button-29"
				}

			}
, 			{
				"box" : 				{
					"blinkcolor" : [ 0.5, 1.0, 0.0, 1.0 ],
					"id" : "obj-556",
					"ignoreclick" : 1,
					"maxclass" : "button",
					"numinlets" : 1,
					"numoutlets" : 1,
					"outlettype" : [ "bang" ],
					"patching_rect" : [ 364.747467, 151.0, 10.0, 10.0 ],
					"varname" : "input-button-30"
				}

			}
, 			{
				"box" : 				{
					"blinkcolor" : [ 0.5, 1.0, 0.0, 1.0 ],
					"id" : "obj-558",
					"ignoreclick" : 1,
					"maxclass" : "button",
					"numinlets" : 1,
					"numoutlets" : 1,
					"outlettype" : [ "bang" ],
					"patching_rect" : [ 375.639038, 151.0, 10.0, 10.0 ],
					"varname" : "input-button-31"
				}

			}
, 			{
				"box" : 				{
					"blinkcolor" : [ 0.5, 1.0, 0.0, 1.0 ],
					"id" : "obj-560",
					"ignoreclick" : 1,
					"maxclass" : "button",
					"numinlets" : 1,
					"numoutlets" : 1,
					"outlettype" : [ "bang" ],
					"patching_rect" : [ 386.53064, 151.0, 10.0, 10.0 ],
					"varname" : "input-button-32"
				}

			}
, 			{
				"box" : 				{
					"blinkcolor" : [ 0.5, 1.0, 0.0, 1.0 ],
					"id" : "obj-562",
					"ignoreclick" : 1,
					"maxclass" : "button",
					"numinlets" : 1,
					"numoutlets" : 1,
					"outlettype" : [ "bang" ],
					"patching_rect" : [ 397.422211, 151.0, 10.0, 10.0 ],
					"varname" : "input-button-33"
				}

			}
, 			{
				"box" : 				{
					"blinkcolor" : [ 0.5, 1.0, 0.0, 1.0 ],
					"id" : "obj-564",
					"ignoreclick" : 1,
					"maxclass" : "button",
					"numinlets" : 1,
					"numoutlets" : 1,
					"outlettype" : [ "bang" ],
					"patching_rect" : [ 408.313812, 151.0, 10.0, 10.0 ],
					"varname" : "input-button-34"
				}

			}
, 			{
				"box" : 				{
					"blinkcolor" : [ 0.5, 1.0, 0.0, 1.0 ],
					"id" : "obj-566",
					"ignoreclick" : 1,
					"maxclass" : "button",
					"numinlets" : 1,
					"numoutlets" : 1,
					"outlettype" : [ "bang" ],
					"patching_rect" : [ 419.205383, 151.0, 10.0, 10.0 ],
					"varname" : "input-button-35"
				}

			}
, 			{
				"box" : 				{
					"blinkcolor" : [ 0.5, 1.0, 0.0, 1.0 ],
					"id" : "obj-568",
					"ignoreclick" : 1,
					"maxclass" : "button",
					"numinlets" : 1,
					"numoutlets" : 1,
					"outlettype" : [ "bang" ],
					"patching_rect" : [ 430.096954, 151.0, 10.0, 10.0 ],
					"varname" : "input-button-36"
				}

			}
, 			{
				"box" : 				{
					"blinkcolor" : [ 0.5, 1.0, 0.0, 1.0 ],
					"id" : "obj-570",
					"ignoreclick" : 1,
					"maxclass" : "button",
					"numinlets" : 1,
					"numoutlets" : 1,
					"outlettype" : [ "bang" ],
					"patching_rect" : [ 440.988556, 151.0, 10.0, 10.0 ],
					"varname" : "input-button-37"
				}

			}
, 			{
				"box" : 				{
					"blinkcolor" : [ 0.5, 1.0, 0.0, 1.0 ],
					"id" : "obj-572",
					"ignoreclick" : 1,
					"maxclass" : "button",
					"numinlets" : 1,
					"numoutlets" : 1,
					"outlettype" : [ "bang" ],
					"patching_rect" : [ 451.880127, 151.0, 10.0, 10.0 ],
					"varname" : "input-button-38"
				}

			}
, 			{
				"box" : 				{
					"blinkcolor" : [ 0.5, 1.0, 0.0, 1.0 ],
					"id" : "obj-574",
					"ignoreclick" : 1,
					"maxclass" : "button",
					"numinlets" : 1,
					"numoutlets" : 1,
					"outlettype" : [ "bang" ],
					"patching_rect" : [ 462.771698, 151.0, 10.0, 10.0 ],
					"varname" : "input-button-39"
				}

			}
, 			{
				"box" : 				{
					"blinkcolor" : [ 0.5, 1.0, 0.0, 1.0 ],
					"id" : "obj-576",
					"ignoreclick" : 1,
					"maxclass" : "button",
					"numinlets" : 1,
					"numoutlets" : 1,
					"outlettype" : [ "bang" ],
					"patching_rect" : [ 473.6633, 151.0, 10.0, 10.0 ],
					"varname" : "input-button-40"
				}

			}
, 			{
				"box" : 				{
					"blinkcolor" : [ 0.5, 1.0, 0.0, 1.0 ],
					"id" : "obj-578",
					"ignoreclick" : 1,
					"maxclass" : "button",
					"numinlets" : 1,
					"numoutlets" : 1,
					"outlettype" : [ "bang" ],
					"patching_rect" : [ 484.554871, 151.0, 10.0, 10.0 ],
					"varname" : "input-button-41"
				}

			}
, 			{
				"box" : 				{
					"blinkcolor" : [ 0.5, 1.0, 0.0, 1.0 ],
					"id" : "obj-580",
					"ignoreclick" : 1,
					"maxclass" : "button",
					"numinlets" : 1,
					"numoutlets" : 1,
					"outlettype" : [ "bang" ],
					"patching_rect" : [ 495.446442, 151.0, 10.0, 10.0 ],
					"varname" : "input-button-42"
				}

			}
, 			{
				"box" : 				{
					"blinkcolor" : [ 0.5, 1.0, 0.0, 1.0 ],
					"id" : "obj-582",
					"ignoreclick" : 1,
					"maxclass" : "button",
					"numinlets" : 1,
					"numoutlets" : 1,
					"outlettype" : [ "bang" ],
					"patching_rect" : [ 506.338043, 151.0, 10.0, 10.0 ],
					"varname" : "input-button-43"
				}

			}
, 			{
				"box" : 				{
					"blinkcolor" : [ 0.5, 1.0, 0.0, 1.0 ],
					"id" : "obj-584",
					"ignoreclick" : 1,
					"maxclass" : "button",
					"numinlets" : 1,
					"numoutlets" : 1,
					"outlettype" : [ "bang" ],
					"patching_rect" : [ 517.229614, 151.0, 10.0, 10.0 ],
					"varname" : "input-button-44"
				}

			}
, 			{
				"box" : 				{
					"blinkcolor" : [ 0.5, 1.0, 0.0, 1.0 ],
					"id" : "obj-586",
					"ignoreclick" : 1,
					"maxclass" : "button",
					"numinlets" : 1,
					"numoutlets" : 1,
					"outlettype" : [ "bang" ],
					"patching_rect" : [ 528.121216, 151.0, 10.0, 10.0 ],
					"varname" : "input-button-45"
				}

			}
, 			{
				"box" : 				{
					"blinkcolor" : [ 0.5, 1.0, 0.0, 1.0 ],
					"id" : "obj-588",
					"ignoreclick" : 1,
					"maxclass" : "button",
					"numinlets" : 1,
					"numoutlets" : 1,
					"outlettype" : [ "bang" ],
					"patching_rect" : [ 539.012756, 151.0, 10.0, 10.0 ],
					"varname" : "input-button-46"
				}

			}
, 			{
				"box" : 				{
					"blinkcolor" : [ 0.5, 1.0, 0.0, 1.0 ],
					"id" : "obj-590",
					"ignoreclick" : 1,
					"maxclass" : "button",
					"numinlets" : 1,
					"numoutlets" : 1,
					"outlettype" : [ "bang" ],
					"patching_rect" : [ 549.904358, 151.0, 10.0, 10.0 ],
					"varname" : "input-button-47"
				}

			}
, 			{
				"box" : 				{
					"blinkcolor" : [ 0.5, 1.0, 0.0, 1.0 ],
					"id" : "obj-592",
					"ignoreclick" : 1,
					"maxclass" : "button",
					"numinlets" : 1,
					"numoutlets" : 1,
					"outlettype" : [ "bang" ],
					"patching_rect" : [ 560.795959, 151.0, 10.0, 10.0 ],
					"varname" : "input-button-48"
				}

			}
, 			{
				"box" : 				{
					"blinkcolor" : [ 0.5, 1.0, 0.0, 1.0 ],
					"id" : "obj-594",
					"ignoreclick" : 1,
					"maxclass" : "button",
					"numinlets" : 1,
					"numoutlets" : 1,
					"outlettype" : [ "bang" ],
					"patching_rect" : [ 571.687561, 151.0, 10.0, 10.0 ],
					"varname" : "input-button-49"
				}

			}
, 			{
				"box" : 				{
					"blinkcolor" : [ 0.5, 1.0, 0.0, 1.0 ],
					"id" : "obj-596",
					"ignoreclick" : 1,
					"maxclass" : "button",
					"numinlets" : 1,
					"numoutlets" : 1,
					"outlettype" : [ "bang" ],
					"patching_rect" : [ 582.579102, 151.0, 10.0, 10.0 ],
					"varname" : "input-button-50"
				}

			}
, 			{
				"box" : 				{
					"blinkcolor" : [ 0.5, 1.0, 0.0, 1.0 ],
					"id" : "obj-598",
					"ignoreclick" : 1,
					"maxclass" : "button",
					"numinlets" : 1,
					"numoutlets" : 1,
					"outlettype" : [ "bang" ],
					"patching_rect" : [ 593.470703, 151.0, 10.0, 10.0 ],
					"varname" : "input-button-51"
				}

			}
, 			{
				"box" : 				{
					"blinkcolor" : [ 0.5, 1.0, 0.0, 1.0 ],
					"id" : "obj-600",
					"ignoreclick" : 1,
					"maxclass" : "button",
					"numinlets" : 1,
					"numoutlets" : 1,
					"outlettype" : [ "bang" ],
					"patching_rect" : [ 604.362305, 151.0, 10.0, 10.0 ],
					"varname" : "input-button-52"
				}

			}
, 			{
				"box" : 				{
					"blinkcolor" : [ 0.5, 1.0, 0.0, 1.0 ],
					"id" : "obj-602",
					"ignoreclick" : 1,
					"maxclass" : "button",
					"numinlets" : 1,
					"numoutlets" : 1,
					"outlettype" : [ "bang" ],
					"patching_rect" : [ 615.253845, 151.0, 10.0, 10.0 ],
					"varname" : "input-button-53"
				}

			}
, 			{
				"box" : 				{
					"blinkcolor" : [ 0.5, 1.0, 0.0, 1.0 ],
					"id" : "obj-604",
					"ignoreclick" : 1,
					"maxclass" : "button",
					"numinlets" : 1,
					"numoutlets" : 1,
					"outlettype" : [ "bang" ],
					"patching_rect" : [ 626.145447, 151.0, 10.0, 10.0 ],
					"varname" : "input-button-54"
				}

			}
, 			{
				"box" : 				{
					"blinkcolor" : [ 0.5, 1.0, 0.0, 1.0 ],
					"id" : "obj-606",
					"ignoreclick" : 1,
					"maxclass" : "button",
					"numinlets" : 1,
					"numoutlets" : 1,
					"outlettype" : [ "bang" ],
					"patching_rect" : [ 637.037048, 151.0, 10.0, 10.0 ],
					"varname" : "input-button-55"
				}

			}
, 			{
				"box" : 				{
					"blinkcolor" : [ 0.5, 1.0, 0.0, 1.0 ],
					"id" : "obj-608",
					"ignoreclick" : 1,
					"maxclass" : "button",
					"numinlets" : 1,
					"numoutlets" : 1,
					"outlettype" : [ "bang" ],
					"patching_rect" : [ 647.928589, 151.0, 10.0, 10.0 ],
					"varname" : "input-button-56"
				}

			}
, 			{
				"box" : 				{
					"blinkcolor" : [ 0.5, 1.0, 0.0, 1.0 ],
					"id" : "obj-610",
					"ignoreclick" : 1,
					"maxclass" : "button",
					"numinlets" : 1,
					"numoutlets" : 1,
					"outlettype" : [ "bang" ],
					"patching_rect" : [ 658.82019, 151.0, 10.0, 10.0 ],
					"varname" : "input-button-57"
				}

			}
, 			{
				"box" : 				{
					"blinkcolor" : [ 0.5, 1.0, 0.0, 1.0 ],
					"id" : "obj-612",
					"ignoreclick" : 1,
					"maxclass" : "button",
					"numinlets" : 1,
					"numoutlets" : 1,
					"outlettype" : [ "bang" ],
					"patching_rect" : [ 669.711792, 151.0, 10.0, 10.0 ],
					"varname" : "input-button-58"
				}

			}
, 			{
				"box" : 				{
					"blinkcolor" : [ 0.5, 1.0, 0.0, 1.0 ],
					"id" : "obj-614",
					"ignoreclick" : 1,
					"maxclass" : "button",
					"numinlets" : 1,
					"numoutlets" : 1,
					"outlettype" : [ "bang" ],
					"patching_rect" : [ 680.603333, 151.0, 10.0, 10.0 ],
					"varname" : "input-button-59"
				}

			}
 ],
		"lines" : [ 			{
				"patchline" : 				{
					"destination" : [ "obj-732", 1 ],
					"disabled" : 0,
					"hidden" : 0,
					"source" : [ "obj-1", 1 ]
				}

			}
, 			{
				"patchline" : 				{
					"destination" : [ "obj-1", 0 ],
					"disabled" : 0,
					"hidden" : 0,
					"source" : [ "obj-16", 0 ]
				}

			}
, 			{
				"patchline" : 				{
					"destination" : [ "obj-1", 0 ],
					"disabled" : 0,
					"hidden" : 0,
					"source" : [ "obj-3", 0 ]
				}

			}
, 			{
				"patchline" : 				{
					"destination" : [ "obj-1", 0 ],
					"disabled" : 0,
					"hidden" : 0,
					"source" : [ "obj-5", 0 ]
				}

			}
 ],
		"dependency_cache" : [ 			{
				"name" : "crossmatrix.jso",
				"bootpath" : "/development/swirly/max/crossmatrix",
				"patcherrelativepath" : ".",
				"type" : "TEXT",
				"implicit" : 1
			}
, 			{
				"name" : "crossmatrix-control.maxpat",
				"bootpath" : "/development/swirly/max/crossmatrix",
				"patcherrelativepath" : ".",
				"type" : "JSON",
				"implicit" : 1
			}
, 			{
				"name" : "keyrepeat.maxpat",
				"bootpath" : "/development/swirly/max/crossmatrix",
				"patcherrelativepath" : ".",
				"type" : "JSON",
				"implicit" : 1
			}
 ]
	}

}
