{
	"patcher" : 	{
		"fileversion" : 1,
		"appversion" : 		{
			"major" : 5,
			"minor" : 1,
			"revision" : 9
		}
,
		"rect" : [ 149.0, 157.0, 640.0, 480.0 ],
		"bglocked" : 0,
		"defrect" : [ 149.0, 157.0, 640.0, 480.0 ],
		"openrect" : [ 0.0, 0.0, 0.0, 0.0 ],
		"openinpresentation" : 0,
		"default_fontsize" : 12.0,
		"default_fontface" : 0,
		"default_fontname" : "Arial",
		"gridonopen" : 0,
		"gridsize" : [ 15.0, 15.0 ],
		"gridsnaponopen" : 0,
		"toolbarvisible" : 1,
		"boxanimatetime" : 200,
		"imprint" : 0,
		"enablehscroll" : 1,
		"enablevscroll" : 1,
		"devicewidth" : 0.0,
		"boxes" : [ 			{
				"box" : 				{
					"maxclass" : "message",
					"text" : "led all yellow off",
					"numinlets" : 2,
					"fontsize" : 12.0,
					"numoutlets" : 1,
					"presentation_rect" : [ 451.0, 116.0, 0.0, 0.0 ],
					"outlettype" : [ "" ],
					"patching_rect" : [ 451.0, 116.0, 95.0, 18.0 ],
					"fontname" : "Arial",
					"id" : "obj-17"
				}

			}
, 			{
				"box" : 				{
					"maxclass" : "message",
					"text" : "el off",
					"numinlets" : 2,
					"fontsize" : 12.0,
					"numoutlets" : 1,
					"outlettype" : [ "" ],
					"patching_rect" : [ 490.0, 214.0, 36.0, 18.0 ],
					"fontname" : "Arial",
					"id" : "obj-16"
				}

			}
, 			{
				"box" : 				{
					"maxclass" : "newobj",
					"text" : "print ctlin",
					"numinlets" : 1,
					"fontsize" : 12.0,
					"numoutlets" : 0,
					"patching_rect" : [ 245.0, 221.0, 59.0, 20.0 ],
					"fontname" : "Arial",
					"id" : "obj-14"
				}

			}
, 			{
				"box" : 				{
					"maxclass" : "newobj",
					"text" : "print midiout",
					"numinlets" : 1,
					"fontsize" : 12.0,
					"numoutlets" : 0,
					"patching_rect" : [ 161.0, 254.0, 76.0, 20.0 ],
					"fontname" : "Arial",
					"id" : "obj-12"
				}

			}
, 			{
				"box" : 				{
					"maxclass" : "message",
					"text" : "undefined nan 3",
					"linecount" : 2,
					"numinlets" : 2,
					"fontsize" : 12.0,
					"numoutlets" : 1,
					"outlettype" : [ "" ],
					"patching_rect" : [ 100.0, 178.0, 79.0, 32.0 ],
					"fontname" : "Arial",
					"id" : "obj-10"
				}

			}
, 			{
				"box" : 				{
					"maxclass" : "newobj",
					"text" : "midiout",
					"numinlets" : 1,
					"fontsize" : 12.0,
					"numoutlets" : 0,
					"patching_rect" : [ 41.0, 176.0, 49.0, 20.0 ],
					"fontname" : "Arial",
					"id" : "obj-7"
				}

			}
, 			{
				"box" : 				{
					"maxclass" : "newobj",
					"text" : "js softstep.jso",
					"numinlets" : 2,
					"fontsize" : 12.0,
					"numoutlets" : 3,
					"outlettype" : [ "", "", "" ],
					"patching_rect" : [ 41.0, 142.0, 184.0, 20.0 ],
					"fontname" : "Arial",
					"id" : "obj-1"
				}

			}
, 			{
				"box" : 				{
					"maxclass" : "newobj",
					"text" : "pack",
					"numinlets" : 2,
					"fontsize" : 12.0,
					"numoutlets" : 1,
					"outlettype" : [ "" ],
					"patching_rect" : [ 41.0, 116.0, 36.0, 20.0 ],
					"fontname" : "Arial",
					"id" : "obj-3"
				}

			}
, 			{
				"box" : 				{
					"maxclass" : "newobj",
					"text" : "ctlin",
					"numinlets" : 1,
					"fontsize" : 12.0,
					"numoutlets" : 3,
					"outlettype" : [ "int", "int", "int" ],
					"patching_rect" : [ 41.0, 84.0, 53.0, 20.0 ],
					"fontname" : "Arial",
					"id" : "obj-2"
				}

			}
, 			{
				"box" : 				{
					"maxclass" : "message",
					"text" : "display hello",
					"numinlets" : 2,
					"fontsize" : 12.0,
					"numoutlets" : 1,
					"outlettype" : [ "" ],
					"patching_rect" : [ 369.0, 62.0, 77.0, 18.0 ],
					"fontname" : "Arial",
					"id" : "obj-13"
				}

			}
, 			{
				"box" : 				{
					"maxclass" : "message",
					"text" : "led 1 green on",
					"numinlets" : 2,
					"fontsize" : 12.0,
					"numoutlets" : 1,
					"outlettype" : [ "" ],
					"patching_rect" : [ 446.0, 86.0, 87.0, 18.0 ],
					"fontname" : "Arial",
					"id" : "obj-11"
				}

			}
, 			{
				"box" : 				{
					"maxclass" : "message",
					"text" : "init",
					"numinlets" : 2,
					"fontsize" : 12.0,
					"numoutlets" : 1,
					"outlettype" : [ "" ],
					"patching_rect" : [ 316.0, 61.0, 32.5, 18.0 ],
					"fontname" : "Arial",
					"id" : "obj-9"
				}

			}
 ],
		"lines" : [ 			{
				"patchline" : 				{
					"source" : [ "obj-17", 0 ],
					"destination" : [ "obj-1", 1 ],
					"hidden" : 0,
					"midpoints" : [  ]
				}

			}
, 			{
				"patchline" : 				{
					"source" : [ "obj-16", 0 ],
					"destination" : [ "obj-1", 1 ],
					"hidden" : 0,
					"midpoints" : [  ]
				}

			}
, 			{
				"patchline" : 				{
					"source" : [ "obj-1", 0 ],
					"destination" : [ "obj-7", 0 ],
					"hidden" : 0,
					"midpoints" : [  ]
				}

			}
, 			{
				"patchline" : 				{
					"source" : [ "obj-11", 0 ],
					"destination" : [ "obj-1", 1 ],
					"hidden" : 0,
					"midpoints" : [  ]
				}

			}
, 			{
				"patchline" : 				{
					"source" : [ "obj-13", 0 ],
					"destination" : [ "obj-1", 1 ],
					"hidden" : 0,
					"midpoints" : [  ]
				}

			}
, 			{
				"patchline" : 				{
					"source" : [ "obj-1", 2 ],
					"destination" : [ "obj-14", 0 ],
					"hidden" : 0,
					"midpoints" : [  ]
				}

			}
, 			{
				"patchline" : 				{
					"source" : [ "obj-1", 0 ],
					"destination" : [ "obj-12", 0 ],
					"hidden" : 0,
					"midpoints" : [  ]
				}

			}
, 			{
				"patchline" : 				{
					"source" : [ "obj-9", 0 ],
					"destination" : [ "obj-1", 1 ],
					"hidden" : 0,
					"midpoints" : [  ]
				}

			}
, 			{
				"patchline" : 				{
					"source" : [ "obj-3", 0 ],
					"destination" : [ "obj-1", 0 ],
					"hidden" : 0,
					"midpoints" : [  ]
				}

			}
, 			{
				"patchline" : 				{
					"source" : [ "obj-1", 2 ],
					"destination" : [ "obj-2", 0 ],
					"hidden" : 0,
					"midpoints" : [ 215.5, 172.0, 253.0, 172.0, 253.0, 69.0, 50.5, 69.0 ]
				}

			}
, 			{
				"patchline" : 				{
					"source" : [ "obj-1", 1 ],
					"destination" : [ "obj-10", 1 ],
					"hidden" : 0,
					"midpoints" : [  ]
				}

			}
, 			{
				"patchline" : 				{
					"source" : [ "obj-2", 1 ],
					"destination" : [ "obj-3", 1 ],
					"hidden" : 0,
					"midpoints" : [  ]
				}

			}
, 			{
				"patchline" : 				{
					"source" : [ "obj-2", 0 ],
					"destination" : [ "obj-3", 0 ],
					"hidden" : 0,
					"midpoints" : [  ]
				}

			}
 ]
	}

}
