{
	"patcher" : 	{
		"fileversion" : 1,
		"appversion" : 		{
			"major" : 5,
			"minor" : 1,
			"revision" : 9
		}
,
		"rect" : [ 768.0, 363.0, 853.0, 375.0 ],
		"bglocked" : 0,
		"defrect" : [ 768.0, 363.0, 853.0, 375.0 ],
		"openrect" : [ 0.0, 0.0, 0.0, 0.0 ],
		"openinpresentation" : 0,
		"default_fontsize" : 12.0,
		"default_fontface" : 0,
		"default_fontname" : "Arial",
		"gridonopen" : 0,
		"gridsize" : [ 15.0, 15.0 ],
		"gridsnaponopen" : 0,
		"toolbarvisible" : 1,
		"boxanimatetime" : 200,
		"imprint" : 0,
		"enablehscroll" : 1,
		"enablevscroll" : 1,
		"devicewidth" : 0.0,
		"boxes" : [ 			{
				"box" : 				{
					"maxclass" : "message",
					"text" : "period $1",
					"numinlets" : 2,
					"numoutlets" : 1,
					"fontsize" : 12.0,
					"outlettype" : [ "" ],
					"patching_rect" : [ 394.0, 269.0, 61.0, 18.0 ],
					"id" : "obj-67",
					"fontname" : "Arial"
				}

			}
, 			{
				"box" : 				{
					"maxclass" : "number",
					"numinlets" : 1,
					"numoutlets" : 2,
					"fontsize" : 12.0,
					"outlettype" : [ "int", "bang" ],
					"minimum" : 50,
					"maximum" : 2000,
					"patching_rect" : [ 394.0, 243.0, 50.0, 20.0 ],
					"id" : "obj-65",
					"fontname" : "Arial"
				}

			}
, 			{
				"box" : 				{
					"maxclass" : "tab",
					"numinlets" : 1,
					"tabs" : [ "forward", "reverse" ],
					"numoutlets" : 3,
					"fontsize" : 12.0,
					"outlettype" : [ "int", "", "" ],
					"presentation_rect" : [ 340.0, 208.0, 0.0, 0.0 ],
					"patching_rect" : [ 340.0, 208.0, 134.0, 19.0 ],
					"id" : "obj-62",
					"fontname" : "Arial"
				}

			}
, 			{
				"box" : 				{
					"maxclass" : "newobj",
					"text" : "prepend display",
					"numinlets" : 1,
					"numoutlets" : 1,
					"fontsize" : 12.0,
					"outlettype" : [ "" ],
					"patching_rect" : [ 259.0, 129.0, 95.0, 20.0 ],
					"id" : "obj-61",
					"fontname" : "Arial"
				}

			}
, 			{
				"box" : 				{
					"maxclass" : "tab",
					"numinlets" : 1,
					"tabs" : [ "start", "stop", "freeze" ],
					"numoutlets" : 3,
					"fontsize" : 12.0,
					"outlettype" : [ "int", "", "" ],
					"patching_rect" : [ 338.0, 184.0, 134.0, 19.0 ],
					"id" : "obj-60",
					"fontname" : "Arial"
				}

			}
, 			{
				"box" : 				{
					"maxclass" : "bpatcher",
					"numinlets" : 0,
					"name" : "onoff.maxpat",
					"numoutlets" : 1,
					"outlettype" : [ "" ],
					"args" : [ "standalone" ],
					"presentation_rect" : [ 207.0, 293.0, 0.0, 0.0 ],
					"patching_rect" : [ 206.0, 280.0, 122.0, 20.0 ],
					"id" : "obj-59"
				}

			}
, 			{
				"box" : 				{
					"maxclass" : "bpatcher",
					"numinlets" : 0,
					"name" : "onoff.maxpat",
					"numoutlets" : 1,
					"outlettype" : [ "" ],
					"args" : [ "tether" ],
					"presentation_rect" : [ 208.0, 260.0, 0.0, 0.0 ],
					"patching_rect" : [ 206.0, 257.0, 122.0, 20.0 ],
					"id" : "obj-58"
				}

			}
, 			{
				"box" : 				{
					"maxclass" : "number",
					"numinlets" : 1,
					"numoutlets" : 2,
					"fontsize" : 12.0,
					"outlettype" : [ "int", "bang" ],
					"minimum" : 0,
					"maximum" : 1,
					"patching_rect" : [ 642.0, 243.0, 25.996094, 20.0 ],
					"id" : "obj-57",
					"fontname" : "Arial"
				}

			}
, 			{
				"box" : 				{
					"maxclass" : "bpatcher",
					"numinlets" : 0,
					"name" : "onoff.maxpat",
					"numoutlets" : 1,
					"outlettype" : [ "" ],
					"args" : [ "el" ],
					"patching_rect" : [ 206.0, 233.0, 122.0, 20.0 ],
					"id" : "obj-54"
				}

			}
, 			{
				"box" : 				{
					"maxclass" : "message",
					"text" : "origin $1",
					"numinlets" : 2,
					"numoutlets" : 1,
					"fontsize" : 12.0,
					"outlettype" : [ "" ],
					"patching_rect" : [ 642.0, 268.0, 57.0, 18.0 ],
					"id" : "obj-47",
					"fontname" : "Arial"
				}

			}
, 			{
				"box" : 				{
					"maxclass" : "message",
					"text" : "led all yellow off",
					"numinlets" : 2,
					"numoutlets" : 1,
					"fontsize" : 12.0,
					"outlettype" : [ "" ],
					"presentation_rect" : [ 512.0, 238.0, 0.0, 0.0 ],
					"patching_rect" : [ 376.0, 153.0, 95.0, 18.0 ],
					"id" : "obj-45",
					"fontname" : "Arial"
				}

			}
, 			{
				"box" : 				{
					"maxclass" : "newobj",
					"text" : "pack led all green off",
					"numinlets" : 4,
					"numoutlets" : 1,
					"fontsize" : 12.0,
					"outlettype" : [ "" ],
					"patching_rect" : [ 475.0, 150.0, 216.0, 20.0 ],
					"id" : "obj-44",
					"fontname" : "Arial"
				}

			}
, 			{
				"box" : 				{
					"maxclass" : "button",
					"numinlets" : 1,
					"numoutlets" : 1,
					"outlettype" : [ "bang" ],
					"patching_rect" : [ 475.0, 103.0, 20.0, 20.0 ],
					"id" : "obj-43"
				}

			}
, 			{
				"box" : 				{
					"maxclass" : "message",
					"text" : "led 1 yellow off",
					"numinlets" : 2,
					"numoutlets" : 1,
					"fontsize" : 12.0,
					"outlettype" : [ "" ],
					"patching_rect" : [ 376.0, 128.0, 95.0, 18.0 ],
					"id" : "obj-41",
					"fontname" : "Arial"
				}

			}
, 			{
				"box" : 				{
					"maxclass" : "newobj",
					"text" : "pack led 1 green off",
					"numinlets" : 4,
					"numoutlets" : 1,
					"fontsize" : 12.0,
					"outlettype" : [ "" ],
					"patching_rect" : [ 475.0, 126.0, 216.0, 20.0 ],
					"id" : "obj-38",
					"fontname" : "Arial"
				}

			}
, 			{
				"box" : 				{
					"maxclass" : "umenu",
					"numinlets" : 1,
					"numoutlets" : 3,
					"fontsize" : 12.0,
					"outlettype" : [ "int", "", "" ],
					"presentation_rect" : [ 565.0, 59.0, 0.0, 0.0 ],
					"items" : [ "off", ",", "on", ",", "blink", ",", "fast", ",", "flash" ],
					"types" : [  ],
					"patching_rect" : [ 651.0, 72.0, 61.0, 20.0 ],
					"id" : "obj-37",
					"fontname" : "Arial"
				}

			}
, 			{
				"box" : 				{
					"maxclass" : "umenu",
					"numinlets" : 1,
					"numoutlets" : 3,
					"fontsize" : 12.0,
					"outlettype" : [ "int", "", "" ],
					"items" : [ "red", ",", "green", ",", "yellow" ],
					"types" : [  ],
					"patching_rect" : [ 585.0, 71.0, 61.0, 20.0 ],
					"id" : "obj-36",
					"fontname" : "Arial"
				}

			}
, 			{
				"box" : 				{
					"maxclass" : "number",
					"numinlets" : 1,
					"numoutlets" : 2,
					"fontsize" : 12.0,
					"outlettype" : [ "int", "bang" ],
					"minimum" : 0,
					"maximum" : 10,
					"patching_rect" : [ 541.0, 71.0, 33.0, 20.0 ],
					"id" : "obj-33",
					"fontname" : "Arial"
				}

			}
, 			{
				"box" : 				{
					"maxclass" : "newobj",
					"text" : "route text",
					"numinlets" : 1,
					"numoutlets" : 2,
					"fontsize" : 12.0,
					"outlettype" : [ "", "" ],
					"patching_rect" : [ 242.0, 65.0, 61.0, 20.0 ],
					"id" : "obj-30",
					"fontname" : "Arial"
				}

			}
, 			{
				"box" : 				{
					"maxclass" : "newobj",
					"text" : "tosymbol",
					"numinlets" : 1,
					"numoutlets" : 1,
					"fontsize" : 12.0,
					"outlettype" : [ "" ],
					"patching_rect" : [ 258.0, 102.0, 59.0, 20.0 ],
					"id" : "obj-27",
					"fontname" : "Arial"
				}

			}
, 			{
				"box" : 				{
					"maxclass" : "textedit",
					"text" : "text her\nhello\nhello\n",
					"linecount" : 3,
					"numinlets" : 1,
					"numoutlets" : 4,
					"fontsize" : 12.0,
					"outlettype" : [ "", "int", "", "" ],
					"patching_rect" : [ 242.0, 35.0, 106.0, 22.0 ],
					"id" : "obj-24",
					"fontname" : "Arial"
				}

			}
, 			{
				"box" : 				{
					"maxclass" : "comment",
					"text" : "Origin controls whether you count starting at 0, or starting at 1.\n\nThis applies to LEDs, \npads, and sensors.",
					"linecount" : 5,
					"numinlets" : 1,
					"numoutlets" : 0,
					"fontsize" : 12.0,
					"patching_rect" : [ 69.0, 2.0, 236.0, 75.0 ],
					"id" : "obj-23",
					"fontname" : "Arial"
				}

			}
, 			{
				"box" : 				{
					"maxclass" : "message",
					"text" : "origin $1",
					"numinlets" : 2,
					"numoutlets" : 1,
					"fontsize" : 12.0,
					"outlettype" : [ "" ],
					"patching_rect" : [ 185.0, 50.0, 57.0, 18.0 ],
					"id" : "obj-21",
					"fontname" : "Arial"
				}

			}
, 			{
				"box" : 				{
					"maxclass" : "toggle",
					"numinlets" : 1,
					"numoutlets" : 1,
					"outlettype" : [ "int" ],
					"patching_rect" : [ 185.0, 21.0, 20.0, 20.0 ],
					"id" : "obj-15"
				}

			}
, 			{
				"box" : 				{
					"maxclass" : "newobj",
					"text" : "midiparse",
					"numinlets" : 1,
					"numoutlets" : 7,
					"fontsize" : 12.0,
					"outlettype" : [ "", "", "", "int", "int", "int", "int" ],
					"patching_rect" : [ 14.0, 142.0, 100.0, 20.0 ],
					"id" : "obj-20",
					"fontname" : "Arial"
				}

			}
, 			{
				"box" : 				{
					"maxclass" : "newobj",
					"text" : "loadmess init",
					"numinlets" : 1,
					"numoutlets" : 1,
					"fontsize" : 12.0,
					"outlettype" : [ "" ],
					"patching_rect" : [ 118.0, 142.0, 81.0, 20.0 ],
					"id" : "obj-4",
					"fontname" : "Arial"
				}

			}
, 			{
				"box" : 				{
					"maxclass" : "newobj",
					"text" : "midiin",
					"numinlets" : 1,
					"numoutlets" : 1,
					"fontsize" : 12.0,
					"outlettype" : [ "int" ],
					"patching_rect" : [ 14.0, 116.0, 42.0, 20.0 ],
					"id" : "obj-6",
					"fontname" : "Arial"
				}

			}
, 			{
				"box" : 				{
					"maxclass" : "newobj",
					"text" : "print midiout",
					"numinlets" : 1,
					"numoutlets" : 0,
					"fontsize" : 12.0,
					"patching_rect" : [ 12.0, 241.0, 76.0, 20.0 ],
					"id" : "obj-12",
					"fontname" : "Arial"
				}

			}
, 			{
				"box" : 				{
					"maxclass" : "message",
					"text" : "Pedal 1 121",
					"numinlets" : 2,
					"numoutlets" : 1,
					"fontsize" : 12.0,
					"outlettype" : [ "" ],
					"patching_rect" : [ 100.0, 208.0, 91.0, 18.0 ],
					"id" : "obj-10",
					"fontname" : "Arial"
				}

			}
, 			{
				"box" : 				{
					"maxclass" : "newobj",
					"text" : "midiout",
					"numinlets" : 1,
					"numoutlets" : 0,
					"fontsize" : 12.0,
					"patching_rect" : [ 41.0, 206.0, 49.0, 20.0 ],
					"id" : "obj-7",
					"fontname" : "Arial"
				}

			}
, 			{
				"box" : 				{
					"maxclass" : "newobj",
					"text" : "js softstep.jso",
					"numinlets" : 2,
					"numoutlets" : 3,
					"fontsize" : 12.0,
					"outlettype" : [ "", "", "" ],
					"patching_rect" : [ 41.0, 172.0, 184.0, 20.0 ],
					"id" : "obj-1",
					"fontname" : "Arial"
				}

			}
, 			{
				"box" : 				{
					"maxclass" : "comment",
					"text" : "Origin controls whether you count starting at 0, or starting at 1.\n\nThis applies to LEDs, \npads, and sensors.",
					"linecount" : 5,
					"numinlets" : 1,
					"numoutlets" : 0,
					"fontsize" : 12.0,
					"patching_rect" : [ 526.0, 220.0, 236.0, 75.0 ],
					"id" : "obj-46",
					"fontname" : "Arial"
				}

			}
 ],
		"lines" : [ 			{
				"patchline" : 				{
					"source" : [ "obj-65", 0 ],
					"destination" : [ "obj-67", 0 ],
					"hidden" : 0,
					"midpoints" : [  ]
				}

			}
, 			{
				"patchline" : 				{
					"source" : [ "obj-59", 0 ],
					"destination" : [ "obj-1", 1 ],
					"hidden" : 0,
					"midpoints" : [  ]
				}

			}
, 			{
				"patchline" : 				{
					"source" : [ "obj-58", 0 ],
					"destination" : [ "obj-1", 1 ],
					"hidden" : 0,
					"midpoints" : [  ]
				}

			}
, 			{
				"patchline" : 				{
					"source" : [ "obj-54", 0 ],
					"destination" : [ "obj-1", 1 ],
					"hidden" : 0,
					"midpoints" : [  ]
				}

			}
, 			{
				"patchline" : 				{
					"source" : [ "obj-62", 1 ],
					"destination" : [ "obj-1", 1 ],
					"hidden" : 0,
					"midpoints" : [  ]
				}

			}
, 			{
				"patchline" : 				{
					"source" : [ "obj-61", 0 ],
					"destination" : [ "obj-1", 1 ],
					"hidden" : 0,
					"midpoints" : [  ]
				}

			}
, 			{
				"patchline" : 				{
					"source" : [ "obj-27", 0 ],
					"destination" : [ "obj-61", 0 ],
					"hidden" : 0,
					"midpoints" : [  ]
				}

			}
, 			{
				"patchline" : 				{
					"source" : [ "obj-30", 0 ],
					"destination" : [ "obj-27", 0 ],
					"hidden" : 0,
					"midpoints" : [  ]
				}

			}
, 			{
				"patchline" : 				{
					"source" : [ "obj-30", 1 ],
					"destination" : [ "obj-27", 0 ],
					"hidden" : 0,
					"midpoints" : [  ]
				}

			}
, 			{
				"patchline" : 				{
					"source" : [ "obj-60", 1 ],
					"destination" : [ "obj-1", 1 ],
					"hidden" : 0,
					"midpoints" : [  ]
				}

			}
, 			{
				"patchline" : 				{
					"source" : [ "obj-57", 0 ],
					"destination" : [ "obj-47", 0 ],
					"hidden" : 0,
					"midpoints" : [  ]
				}

			}
, 			{
				"patchline" : 				{
					"source" : [ "obj-45", 0 ],
					"destination" : [ "obj-1", 1 ],
					"hidden" : 0,
					"midpoints" : [  ]
				}

			}
, 			{
				"patchline" : 				{
					"source" : [ "obj-38", 0 ],
					"destination" : [ "obj-41", 1 ],
					"hidden" : 0,
					"midpoints" : [  ]
				}

			}
, 			{
				"patchline" : 				{
					"source" : [ "obj-33", 0 ],
					"destination" : [ "obj-38", 1 ],
					"hidden" : 0,
					"midpoints" : [  ]
				}

			}
, 			{
				"patchline" : 				{
					"source" : [ "obj-36", 1 ],
					"destination" : [ "obj-38", 2 ],
					"hidden" : 0,
					"midpoints" : [  ]
				}

			}
, 			{
				"patchline" : 				{
					"source" : [ "obj-36", 1 ],
					"destination" : [ "obj-44", 2 ],
					"hidden" : 0,
					"midpoints" : [  ]
				}

			}
, 			{
				"patchline" : 				{
					"source" : [ "obj-37", 1 ],
					"destination" : [ "obj-38", 3 ],
					"hidden" : 0,
					"midpoints" : [  ]
				}

			}
, 			{
				"patchline" : 				{
					"source" : [ "obj-37", 1 ],
					"destination" : [ "obj-44", 3 ],
					"hidden" : 0,
					"midpoints" : [  ]
				}

			}
, 			{
				"patchline" : 				{
					"source" : [ "obj-44", 0 ],
					"destination" : [ "obj-45", 1 ],
					"hidden" : 0,
					"midpoints" : [  ]
				}

			}
, 			{
				"patchline" : 				{
					"source" : [ "obj-43", 0 ],
					"destination" : [ "obj-44", 0 ],
					"hidden" : 0,
					"midpoints" : [  ]
				}

			}
, 			{
				"patchline" : 				{
					"source" : [ "obj-43", 0 ],
					"destination" : [ "obj-38", 0 ],
					"hidden" : 0,
					"midpoints" : [  ]
				}

			}
, 			{
				"patchline" : 				{
					"source" : [ "obj-37", 1 ],
					"destination" : [ "obj-43", 0 ],
					"hidden" : 0,
					"midpoints" : [  ]
				}

			}
, 			{
				"patchline" : 				{
					"source" : [ "obj-36", 1 ],
					"destination" : [ "obj-43", 0 ],
					"hidden" : 0,
					"midpoints" : [  ]
				}

			}
, 			{
				"patchline" : 				{
					"source" : [ "obj-41", 0 ],
					"destination" : [ "obj-1", 1 ],
					"hidden" : 0,
					"midpoints" : [  ]
				}

			}
, 			{
				"patchline" : 				{
					"source" : [ "obj-24", 0 ],
					"destination" : [ "obj-30", 0 ],
					"hidden" : 0,
					"midpoints" : [  ]
				}

			}
, 			{
				"patchline" : 				{
					"source" : [ "obj-21", 0 ],
					"destination" : [ "obj-1", 1 ],
					"hidden" : 0,
					"midpoints" : [  ]
				}

			}
, 			{
				"patchline" : 				{
					"source" : [ "obj-15", 0 ],
					"destination" : [ "obj-21", 0 ],
					"hidden" : 0,
					"midpoints" : [  ]
				}

			}
, 			{
				"patchline" : 				{
					"source" : [ "obj-4", 0 ],
					"destination" : [ "obj-1", 1 ],
					"hidden" : 0,
					"midpoints" : [  ]
				}

			}
, 			{
				"patchline" : 				{
					"source" : [ "obj-1", 2 ],
					"destination" : [ "obj-6", 0 ],
					"hidden" : 0,
					"midpoints" : [ 215.5, 215.0, 245.0, 215.0, 245.0, 98.0, 23.5, 98.0 ]
				}

			}
, 			{
				"patchline" : 				{
					"source" : [ "obj-20", 2 ],
					"destination" : [ "obj-1", 0 ],
					"hidden" : 0,
					"midpoints" : [  ]
				}

			}
, 			{
				"patchline" : 				{
					"source" : [ "obj-1", 1 ],
					"destination" : [ "obj-10", 1 ],
					"hidden" : 0,
					"midpoints" : [  ]
				}

			}
, 			{
				"patchline" : 				{
					"source" : [ "obj-1", 0 ],
					"destination" : [ "obj-12", 0 ],
					"hidden" : 0,
					"midpoints" : [  ]
				}

			}
, 			{
				"patchline" : 				{
					"source" : [ "obj-1", 0 ],
					"destination" : [ "obj-7", 0 ],
					"hidden" : 0,
					"midpoints" : [  ]
				}

			}
, 			{
				"patchline" : 				{
					"source" : [ "obj-6", 0 ],
					"destination" : [ "obj-20", 0 ],
					"hidden" : 0,
					"midpoints" : [  ]
				}

			}
 ]
	}

}
