{
	"patcher" : 	{
		"fileversion" : 1,
		"appversion" : 		{
			"major" : 6,
			"minor" : 1,
			"revision" : 9,
			"architecture" : "x86"
		}
,
		"rect" : [ -1.0, 670.0, 941.0, 480.0 ],
		"bglocked" : 0,
		"openinpresentation" : 0,
		"default_fontsize" : 12.0,
		"default_fontface" : 0,
		"default_fontname" : "Arial",
		"gridonopen" : 0,
		"gridsize" : [ 15.0, 15.0 ],
		"gridsnaponopen" : 0,
		"statusbarvisible" : 2,
		"toolbarvisible" : 1,
		"boxanimatetime" : 200,
		"imprint" : 0,
		"enablehscroll" : 1,
		"enablevscroll" : 1,
		"devicewidth" : 0.0,
		"description" : "",
		"digest" : "",
		"tags" : "",
		"boxes" : [ 			{
				"box" : 				{
					"fontname" : "Arial",
					"fontsize" : 12.0,
					"id" : "obj-30",
					"maxclass" : "message",
					"numinlets" : 2,
					"numoutlets" : 1,
					"outlettype" : [ "" ],
					"patching_rect" : [ 121.0, 188.0, 50.0, 18.0 ],
					"text" : "20 0"
				}

			}
, 			{
				"box" : 				{
					"fontname" : "Arial",
					"fontsize" : 12.0,
					"id" : "obj-28",
					"maxclass" : "newobj",
					"numinlets" : 1,
					"numoutlets" : 7,
					"outlettype" : [ "", "", "", "int", "int", "int", "int" ],
					"patching_rect" : [ 149.5, 125.0, 61.0, 20.0 ],
					"text" : "midiparse"
				}

			}
, 			{
				"box" : 				{
					"id" : "obj-27",
					"maxclass" : "button",
					"numinlets" : 1,
					"numoutlets" : 1,
					"outlettype" : [ "bang" ],
					"patching_rect" : [ 132.0, 100.0, 12.0, 12.0 ]
				}

			}
, 			{
				"box" : 				{
					"candycane" : 7,
					"id" : "obj-19",
					"ignoreclick" : 1,
					"maxclass" : "multislider",
					"numinlets" : 1,
					"numoutlets" : 2,
					"outlettype" : [ "", "" ],
					"parameter_enable" : 0,
					"patching_rect" : [ 685.5, 7.0, 62.0, 53.0 ],
					"presentation_rect" : [ 687.5, 5.0, 0.0, 0.0 ],
					"setminmax" : [ 0.0, 255.0 ],
					"setstyle" : 1,
					"size" : 9,
					"slidercolor" : [ 0.991636, 0.776874, 0.057928, 1.0 ],
					"spacing" : 1,
					"varname" : "multislider[5]"
				}

			}
, 			{
				"box" : 				{
					"candycane" : 7,
					"id" : "obj-20",
					"ignoreclick" : 1,
					"maxclass" : "multislider",
					"numinlets" : 1,
					"numoutlets" : 2,
					"outlettype" : [ "", "" ],
					"parameter_enable" : 0,
					"patching_rect" : [ 623.5, 7.0, 62.0, 53.0 ],
					"presentation_rect" : [ 625.5, 5.0, 0.0, 0.0 ],
					"setminmax" : [ 0.0, 255.0 ],
					"setstyle" : 1,
					"size" : 9,
					"slidercolor" : [ 0.991636, 0.776874, 0.057928, 1.0 ],
					"spacing" : 1,
					"varname" : "multislider[6]"
				}

			}
, 			{
				"box" : 				{
					"candycane" : 7,
					"id" : "obj-21",
					"ignoreclick" : 1,
					"maxclass" : "multislider",
					"numinlets" : 1,
					"numoutlets" : 2,
					"outlettype" : [ "", "" ],
					"parameter_enable" : 0,
					"patching_rect" : [ 561.5, 7.0, 62.0, 53.0 ],
					"presentation_rect" : [ 563.5, 5.0, 0.0, 0.0 ],
					"setminmax" : [ 0.0, 255.0 ],
					"setstyle" : 1,
					"size" : 9,
					"slidercolor" : [ 0.991636, 0.776874, 0.057928, 1.0 ],
					"spacing" : 1,
					"varname" : "multislider[7]"
				}

			}
, 			{
				"box" : 				{
					"candycane" : 7,
					"id" : "obj-22",
					"ignoreclick" : 1,
					"maxclass" : "multislider",
					"numinlets" : 1,
					"numoutlets" : 2,
					"outlettype" : [ "", "" ],
					"parameter_enable" : 0,
					"patching_rect" : [ 499.5, 7.0, 62.0, 53.0 ],
					"presentation_rect" : [ 501.5, 5.0, 0.0, 0.0 ],
					"setminmax" : [ 0.0, 255.0 ],
					"setstyle" : 1,
					"size" : 9,
					"slidercolor" : [ 0.991636, 0.776874, 0.057928, 1.0 ],
					"spacing" : 1,
					"varname" : "multislider[8]"
				}

			}
, 			{
				"box" : 				{
					"candycane" : 7,
					"id" : "obj-17",
					"ignoreclick" : 1,
					"maxclass" : "multislider",
					"numinlets" : 1,
					"numoutlets" : 2,
					"outlettype" : [ "", "" ],
					"parameter_enable" : 0,
					"patching_rect" : [ 437.5, 7.0, 62.0, 53.0 ],
					"presentation_rect" : [ 438.5, 10.0, 0.0, 0.0 ],
					"setminmax" : [ 0.0, 255.0 ],
					"setstyle" : 1,
					"size" : 9,
					"slidercolor" : [ 0.991636, 0.776874, 0.057928, 1.0 ],
					"spacing" : 1,
					"varname" : "multislider[3]"
				}

			}
, 			{
				"box" : 				{
					"candycane" : 7,
					"id" : "obj-18",
					"ignoreclick" : 1,
					"maxclass" : "multislider",
					"numinlets" : 1,
					"numoutlets" : 2,
					"outlettype" : [ "", "" ],
					"parameter_enable" : 0,
					"patching_rect" : [ 375.5, 7.0, 62.0, 53.0 ],
					"presentation_rect" : [ 376.5, 10.0, 0.0, 0.0 ],
					"setminmax" : [ 0.0, 255.0 ],
					"setstyle" : 1,
					"size" : 9,
					"slidercolor" : [ 0.991636, 0.776874, 0.057928, 1.0 ],
					"spacing" : 1,
					"varname" : "multislider[4]"
				}

			}
, 			{
				"box" : 				{
					"candycane" : 7,
					"id" : "obj-16",
					"ignoreclick" : 1,
					"maxclass" : "multislider",
					"numinlets" : 1,
					"numoutlets" : 2,
					"outlettype" : [ "", "" ],
					"parameter_enable" : 0,
					"patching_rect" : [ 313.5, 7.0, 62.0, 53.0 ],
					"presentation_rect" : [ 317.5, 6.0, 0.0, 0.0 ],
					"setminmax" : [ 0.0, 255.0 ],
					"setstyle" : 1,
					"size" : 9,
					"slidercolor" : [ 0.991636, 0.776874, 0.057928, 1.0 ],
					"spacing" : 1,
					"varname" : "multislider[2]"
				}

			}
, 			{
				"box" : 				{
					"candycane" : 7,
					"id" : "obj-12",
					"ignoreclick" : 1,
					"maxclass" : "multislider",
					"numinlets" : 1,
					"numoutlets" : 2,
					"outlettype" : [ "", "" ],
					"parameter_enable" : 0,
					"patching_rect" : [ 251.5, 7.0, 62.0, 53.0 ],
					"setminmax" : [ 0.0, 255.0 ],
					"setstyle" : 1,
					"size" : 9,
					"slidercolor" : [ 0.991636, 0.776874, 0.057928, 1.0 ],
					"spacing" : 1,
					"varname" : "multislider[1]"
				}

			}
, 			{
				"box" : 				{
					"fontname" : "Arial",
					"fontsize" : 12.0,
					"id" : "obj-11",
					"maxclass" : "newobj",
					"numinlets" : 1,
					"numoutlets" : 1,
					"outlettype" : [ "bang" ],
					"patching_rect" : [ 223.5, 111.0, 60.0, 20.0 ],
					"text" : "loadbang"
				}

			}
, 			{
				"box" : 				{
					"fontname" : "Arial",
					"fontsize" : 12.0,
					"id" : "obj-4",
					"maxclass" : "newobj",
					"numinlets" : 1,
					"numoutlets" : 1,
					"outlettype" : [ "int" ],
					"patching_rect" : [ 149.5, 96.0, 42.0, 20.0 ],
					"text" : "midiin"
				}

			}
, 			{
				"box" : 				{
					"fontname" : "Arial",
					"fontsize" : 12.0,
					"id" : "obj-3",
					"maxclass" : "newobj",
					"numinlets" : 2,
					"numoutlets" : 0,
					"patching_rect" : [ 190.5, 176.0, 93.0, 20.0 ],
					"saved_object_attributes" : 					{
						"filename" : "nanolaser.jso",
						"parameter_enable" : 0
					}
,
					"text" : "js nanolaser.jso"
				}

			}
, 			{
				"box" : 				{
					"fontname" : "Arial",
					"fontsize" : 11.0,
					"htabcolor" : [ 0.465358, 1.0, 0.286488, 1.0 ],
					"id" : "obj-6",
					"maxclass" : "tab",
					"numinlets" : 1,
					"numoutlets" : 3,
					"outlettype" : [ "int", "", "" ],
					"parameter_enable" : 0,
					"patching_rect" : [ 11.0, 7.0, 50.0, 88.0 ],
					"tabs" : [ "black", "auto", "sound", "manual" ]
				}

			}
, 			{
				"box" : 				{
					"fontname" : "Arial",
					"fontsize" : 12.0,
					"id" : "obj-2",
					"maxclass" : "newobj",
					"numinlets" : 1,
					"numoutlets" : 3,
					"outlettype" : [ "", "", "" ],
					"patching_rect" : [ 172.5, 259.0, 70.0, 20.0 ],
					"text" : "dmxusbpro"
				}

			}
 ],
		"lines" : [ 			{
				"patchline" : 				{
					"destination" : [ "obj-3", 1 ],
					"disabled" : 0,
					"hidden" : 0,
					"source" : [ "obj-11", 0 ]
				}

			}
, 			{
				"patchline" : 				{
					"destination" : [ "obj-3", 0 ],
					"disabled" : 0,
					"hidden" : 0,
					"source" : [ "obj-28", 2 ]
				}

			}
, 			{
				"patchline" : 				{
					"destination" : [ "obj-30", 1 ],
					"disabled" : 0,
					"hidden" : 0,
					"source" : [ "obj-28", 2 ]
				}

			}
, 			{
				"patchline" : 				{
					"destination" : [ "obj-27", 0 ],
					"disabled" : 0,
					"hidden" : 0,
					"source" : [ "obj-4", 0 ]
				}

			}
, 			{
				"patchline" : 				{
					"destination" : [ "obj-28", 0 ],
					"disabled" : 0,
					"hidden" : 0,
					"source" : [ "obj-4", 0 ]
				}

			}
 ],
		"dependency_cache" : [ 			{
				"name" : "nanolaser.jso",
				"bootpath" : "/development/swirly/max/nanolaser",
				"patcherrelativepath" : ".",
				"type" : "TEXT",
				"implicit" : 1
			}
, 			{
				"name" : "dmxusbpro.mxo",
				"type" : "iLaX"
			}
 ]
	}

}
