{
	"patcher" : 	{
		"fileversion" : 1,
		"rect" : [ 212.0, 159.0, 341.0, 271.0 ],
		"bglocked" : 0,
		"defrect" : [ 212.0, 159.0, 341.0, 271.0 ],
		"openrect" : [ 0.0, 0.0, 0.0, 0.0 ],
		"openinpresentation" : 1,
		"default_fontsize" : 12.0,
		"default_fontface" : 0,
		"default_fontname" : "Arial",
		"gridonopen" : 0,
		"gridsize" : [ 15.0, 15.0 ],
		"gridsnaponopen" : 0,
		"toolbarvisible" : 1,
		"boxanimatetime" : 200,
		"imprint" : 0,
		"enablehscroll" : 1,
		"enablevscroll" : 1,
		"devicewidth" : 0.0,
		"boxes" : [ 			{
				"box" : 				{
					"maxclass" : "comment",
					"text" : "filtering",
					"presentation_rect" : [ 37.0, 23.0, 57.0, 23.0 ],
					"fontsize" : 14.0,
					"patching_rect" : [ 44.0, 128.0, 57.0, 23.0 ],
					"numinlets" : 1,
					"presentation" : 1,
					"id" : "obj-28",
					"numoutlets" : 0,
					"fontname" : "Arial"
				}

			}
, 			{
				"box" : 				{
					"maxclass" : "button",
					"presentation_rect" : [ 0.0, 23.0, 20.0, 20.0 ],
					"blinkcolor" : [ 0.227451, 1.0, 0.090196, 1.0 ],
					"patching_rect" : [ 94.0, 126.0, 20.0, 20.0 ],
					"numinlets" : 1,
					"presentation" : 1,
					"id" : "obj-29",
					"numoutlets" : 1,
					"outlettype" : [ "bang" ]
				}

			}
, 			{
				"box" : 				{
					"maxclass" : "comment",
					"text" : "incoming data",
					"linecount" : 2,
					"presentation_rect" : [ 37.0, 0.0, 103.0, 23.0 ],
					"fontsize" : 14.0,
					"patching_rect" : [ 23.0, 60.0, 59.0, 39.0 ],
					"numinlets" : 1,
					"presentation" : 1,
					"id" : "obj-27",
					"numoutlets" : 0,
					"fontname" : "Arial"
				}

			}
, 			{
				"box" : 				{
					"maxclass" : "button",
					"presentation_rect" : [ 0.0, 2.0, 20.0, 20.0 ],
					"patching_rect" : [ 30.0, 9.0, 20.0, 20.0 ],
					"numinlets" : 1,
					"presentation" : 1,
					"id" : "obj-25",
					"numoutlets" : 1,
					"outlettype" : [ "bang" ]
				}

			}
, 			{
				"box" : 				{
					"maxclass" : "newobj",
					"text" : "midiformat",
					"fontsize" : 12.0,
					"patching_rect" : [ 54.0, 195.0, 208.0, 20.0 ],
					"numinlets" : 7,
					"id" : "obj-19",
					"numoutlets" : 1,
					"outlettype" : [ "int" ],
					"fontname" : "Arial"
				}

			}
, 			{
				"box" : 				{
					"maxclass" : "newobj",
					"text" : "pack",
					"fontsize" : 12.0,
					"patching_rect" : [ 117.0, 164.0, 132.0, 20.0 ],
					"numinlets" : 2,
					"id" : "obj-18",
					"numoutlets" : 1,
					"outlettype" : [ "" ],
					"fontname" : "Arial"
				}

			}
, 			{
				"box" : 				{
					"maxclass" : "newobj",
					"text" : "unpack",
					"fontsize" : 12.0,
					"patching_rect" : [ 117.0, 68.0, 132.0, 20.0 ],
					"numinlets" : 1,
					"id" : "obj-17",
					"numoutlets" : 2,
					"outlettype" : [ "int", "int" ],
					"fontname" : "Arial"
				}

			}
, 			{
				"box" : 				{
					"maxclass" : "newobj",
					"text" : "expr int($i1 / 4) * 4",
					"fontsize" : 12.0,
					"patching_rect" : [ 117.0, 124.0, 109.0, 20.0 ],
					"numinlets" : 1,
					"id" : "obj-16",
					"numoutlets" : 1,
					"outlettype" : [ "" ],
					"fontname" : "Arial"
				}

			}
, 			{
				"box" : 				{
					"maxclass" : "newobj",
					"text" : "split 40 79",
					"fontsize" : 12.0,
					"patching_rect" : [ 117.0, 97.0, 123.0, 20.0 ],
					"numinlets" : 3,
					"id" : "obj-15",
					"numoutlets" : 2,
					"outlettype" : [ "int", "int" ],
					"fontname" : "Arial"
				}

			}
, 			{
				"box" : 				{
					"maxclass" : "outlet",
					"patching_rect" : [ 274.0, 234.0, 25.0, 25.0 ],
					"numinlets" : 1,
					"id" : "obj-14",
					"numoutlets" : 0,
					"comment" : ""
				}

			}
, 			{
				"box" : 				{
					"maxclass" : "inlet",
					"patching_rect" : [ 54.0, 7.0, 25.0, 25.0 ],
					"numinlets" : 0,
					"id" : "obj-13",
					"numoutlets" : 1,
					"outlettype" : [ "" ],
					"comment" : ""
				}

			}
, 			{
				"box" : 				{
					"maxclass" : "newobj",
					"text" : "midiselect @ch all @ctl all",
					"fontsize" : 12.0,
					"patching_rect" : [ 54.0, 37.0, 239.0, 20.0 ],
					"numinlets" : 1,
					"id" : "obj-12",
					"numoutlets" : 8,
					"outlettype" : [ "", "", "", "int", "int", "int", "int", "int" ],
					"fontname" : "Arial"
				}

			}
 ],
		"lines" : [ 			{
				"patchline" : 				{
					"source" : [ "obj-15", 1 ],
					"destination" : [ "obj-18", 0 ],
					"hidden" : 0,
					"midpoints" : [ 230.5, 153.5, 126.5, 153.5 ]
				}

			}
, 			{
				"patchline" : 				{
					"source" : [ "obj-17", 0 ],
					"destination" : [ "obj-15", 0 ],
					"hidden" : 0,
					"midpoints" : [  ]
				}

			}
, 			{
				"patchline" : 				{
					"source" : [ "obj-15", 0 ],
					"destination" : [ "obj-16", 0 ],
					"hidden" : 0,
					"midpoints" : [  ]
				}

			}
, 			{
				"patchline" : 				{
					"source" : [ "obj-13", 0 ],
					"destination" : [ "obj-12", 0 ],
					"hidden" : 0,
					"midpoints" : [  ]
				}

			}
, 			{
				"patchline" : 				{
					"source" : [ "obj-12", 7 ],
					"destination" : [ "obj-14", 0 ],
					"hidden" : 0,
					"midpoints" : [  ]
				}

			}
, 			{
				"patchline" : 				{
					"source" : [ "obj-12", 2 ],
					"destination" : [ "obj-17", 0 ],
					"hidden" : 0,
					"midpoints" : [  ]
				}

			}
, 			{
				"patchline" : 				{
					"source" : [ "obj-18", 0 ],
					"destination" : [ "obj-19", 2 ],
					"hidden" : 0,
					"midpoints" : [  ]
				}

			}
, 			{
				"patchline" : 				{
					"source" : [ "obj-12", 6 ],
					"destination" : [ "obj-19", 6 ],
					"hidden" : 0,
					"midpoints" : [  ]
				}

			}
, 			{
				"patchline" : 				{
					"source" : [ "obj-19", 0 ],
					"destination" : [ "obj-14", 0 ],
					"hidden" : 0,
					"midpoints" : [  ]
				}

			}
, 			{
				"patchline" : 				{
					"source" : [ "obj-16", 0 ],
					"destination" : [ "obj-18", 0 ],
					"hidden" : 0,
					"midpoints" : [  ]
				}

			}
, 			{
				"patchline" : 				{
					"source" : [ "obj-17", 1 ],
					"destination" : [ "obj-18", 1 ],
					"hidden" : 0,
					"midpoints" : [  ]
				}

			}
, 			{
				"patchline" : 				{
					"source" : [ "obj-13", 0 ],
					"destination" : [ "obj-25", 0 ],
					"hidden" : 0,
					"midpoints" : [  ]
				}

			}
, 			{
				"patchline" : 				{
					"source" : [ "obj-16", 0 ],
					"destination" : [ "obj-29", 0 ],
					"hidden" : 0,
					"midpoints" : [  ]
				}

			}
 ]
	}

}
